<svg version="1.0" xmlns="http://www.w3.org/2000/svg" width="1365.333" height="1365.333" viewBox="0 0 1024 1024"><path d="M897.8 62.1c-1 1.6-2.4 2.2-4.6 2.1-1.8 0-3 .4-2.7.9.9 1.3-.9 1.1-2.4-.4-.8-.6-1.1-.7-.8-.1.3.5-.7 1.5-2.4 2.1-1.6.6-2.7.8-2.5.4.3-.4-.1-.8-.9-.8s-1.2.4-1 .8c.7 1.1-2.3 1.9-4.2 1.2-1.1-.4-1.4-.3-.9.6.9 1.4-1.6 1.1-2.6-.4-.5-.6-.8-.3-.8.7 0 1.1-.6 1.5-2 1.1-1.1-.3-2.6 0-3.4.6-.7.6-2.5 1.2-4 1.3-1.4.1-2.6.6-2.6 1s-1 .8-2.2.8c-4.1 0-5.8.3-5.8 1.2 0 .4-1.3.8-2.9.8-1.7 0-3.3.4-3.6 1-.3.5-2.2 1-4.1 1-2 0-3.4.5-3.4 1.2 0 1-.3.9-.9-.1-.6-.9-1-1-1.2-.2-.3.7-1.9 1.3-3.6 1.3-1.8.1-3 .5-2.7 1 .4.7-7.1 1.4-9.9.9-.5-.1-.6.3-.2.9.3.5-.3 1-1.4 1-1 0-2.2.6-2.4 1.2-.4 1-.6 1-.6 0-.1-.6-.6-1.2-1.2-1.2-.5 0-.7.6-.3 1.2.5.8 0 .7-1.1-.2-1.1-.9-1.6-1-1.1-.3.5 1-.3 1.3-3.1 1.3-2.8 0-3.4.3-2.3 1 1.2.8.8 1-1.5 1.1-1.6.1-3.8.1-4.7 0-1-.1-1.8.2-1.8.7 0 .5-.6.9-1.2 1-2.9.3-6.3 1-6.3 1.1 0 .4-4 1.2-5.8 1.2-.9 0-1.5.4-1.2 1 .4.5-1 .9-3 .9-2.6 0-3.4.3-2.9 1.2.5.8 0 .7-1.1-.2-1.5-1.2-1.7-1.2-1-.1.6 1.1.4 1.3-.7.8-.9-.3-2.8.1-4.3.9s-3 1.2-3.3 1c-.2-.3-2 .1-3.9.9-2 .8-4.6 1.5-5.9 1.5-1.2 0-2.6.4-2.9 1-.3.5-2.8 1-5.5 1-2.6 0-5 .4-5.2.9-.1.5-1.4 1.1-2.8 1.3-1.4.1-3.1.9-3.9 1.6-1.1 1.1-1.1 1.5.5 2.7 1.8 1.4 3.8 1.9 5.7 1.6.5-.1.6.3.2.9-.3.5.1 1 1 1 1 0 1.3.5.9 1.2-.5.8-.2.9.9.5 1-.3 1.7-.2 1.7.4 0 .6.5.7 1 .4.6-.3 1-.1 1 .4 0 .6.7 1.1 1.6 1.1.9 0 1.2.5.8 1.2-.4.6-.3.8.4.4.6-.3 1.8.1 2.6 1 .9.8 1.6 1.3 1.6.9s1.2.3 2.6 1.4c1.5 1.1 3.1 1.8 3.7 1.4.6-.3.7-.1.3.5-.4.7-.1 1.2.8 1.2s1.6.4 1.6 1c0 .5.9 1 2.1 1 1.2 0 1.8.4 1.3 1.1-.4.7-.1 1 .7.7.8-.3 2.5.3 3.8 1.3 1.3 1 2.8 1.6 3.4 1.2.6-.3.7-.1.3.5-.4.7-.1 1.2.8 1.2s1.6.4 1.6.8 1.2 1.3 2.8 2c5 2.3 7.2 3.7 7.2 4.4 0 .5.9.8 2 .8s2 .4 2 1c0 .5.7 1 1.6 1 .8 0 1.3.4 1 .8-.3.5.1.9.9 1 .8.1 2.2.3 3 .4.8.1 1.2.5.9 1-.3.4.4.8 1.6.8 1.2 0 1.8.4 1.5 1-.3.5.3 1 1.4 1 1.2 0 2.1.4 2.1 1 0 .5.7 1 1.6 1 .8 0 1.3.4 1 .8-.3.5 0 .9.7.9 1.9 0 6.7 3.4 6.6 4.7 0 .7-.2.7-.6-.1-.4-1-.9-1-2.6 0-2.2 1.2-2.9 1.4-6 1.6-1 0-1.6.5-1.3.9.3.5-.1.9-.9.9s-1.2-.5-.8-1c.3-.5-.5-.3-1.8.4s-3.2 1.2-4.3 1c-1.1-.1-1.6.2-1.2.8 1 1.5-.7 1.4-2.3-.2-1-1-1.1-.9-.6.4.5 1.3.1 1.5-2.1 1.1-1.9-.3-2.5-.1-2 .7.4.6.4 1.1-.1 1-2.5-.4-8.3.2-7.9.9.3.5-1.4.9-3.7 1.1-2.3.1-4.6.6-5.1 1.2-.6.5-2.5.9-4.4.9-2.4 0-3.1.3-2.6 1.2.5.8 0 .7-1.1-.2-1.1-.9-1.6-1-1.1-.3.5.9-.1 1.3-1.9 1.3-1.5 0-2.4.4-2 1 .8 1.3-1.8.8-2.7-.5-.5-.6-.8-.5-.8.3 0 .7-.4 1-1 .7-.5-.3-1-.2-1 .4 0 .6-.7.7-1.7.4-1.2-.5-1.4-.3-.8.8.7 1.1.5 1.1-1-.1-1.1-.9-1.6-1-1.1-.3.6 1.2-1 1.6-4 1.2-.4 0-1.1.5-1.5 1.3-.7 1-.9 1-.9 0 0-.6-.5-1.2-1.1-1.2-.5 0-.7.4-.4 1 .6.9-1.4 1.4-4.2 1.1-.6-.1-1.4.3-1.8.9-.3.5-1.9 1-3.4 1s-3.3.6-4 1.2c-1.1 1.1-1.2 1-.6-.2.7-1.2.6-1.3-.6-.3-.8.7-3.1 1.3-5.1 1.5-2 .1-3.4.6-3.2 1 .3.4-1.1.8-3 .8-2 0-3.6.4-3.6.8s-1.2.9-2.6 1c-1.5.1-3.2.6-3.8 1.1-.6.5-2.4 1-4.1 1.2-1.6.2-3.6.8-4.4 1.4-1.2.8-1.3.7-.6-.5.6-1.2.5-1.3-.6-.3-.7.7-2.7 1.3-4.3 1.3-2.4 0-2.7.3-1.6 1 .9.6 1 1 .3 1-.6 0-1.5-.5-1.8-1-.3-.6-1.2-1-1.8-1-.7 0-.6.4.3 1 1.3.8 1.2 1-.5 1.1-4.3.3-7.1-.3-8.2-1.7-.6-.9-1.4-1.5-1.7-1.6-1.9 0-4.6-1.2-4.6-1.9 0-.5-.7-.9-1.6-.9-.9 0-1.2-.5-.8-1.2.4-.6.3-.8-.4-.4-.6.3-1.7-.1-2.5-.9-.9-.8-2.3-1.5-3.2-1.5-1 0-1.3-.5-.9-1.2.4-.6.3-.8-.4-.4-.6.3-1.3.2-1.7-.4-.4-.6-1.1-.8-1.6-.5-.5.4-.9.1-.9-.4 0-.6-.7-1.1-1.6-1.1-.8 0-1.2-.5-.9-1 .3-.6-.3-1-1.4-1-1.2 0-2.1-.5-2.1-1 0-.6-.9-1-2-1s-2-.5-2-1c0-.6-.7-1-1.6-1-.9 0-1.2-.5-.8-1.2.4-.6.3-.8-.4-.4-.6.3-1.7-.1-2.5-.9-.9-.8-2.2-1.5-3-1.5-.8 0-2.2-.9-3.2-2s-2.4-2-3.2-2c-.7 0-1.3-.5-1.3-1 0-.6-.3-.9-.7-.8-1.5.3-7.3-2.8-6.6-3.5.3-.4-.4-.7-1.6-.7-1.2 0-2-.4-1.7-.8.3-.5-.1-.9-.8-.9-.7 0-3.3-1.4-5.9-3.1-2.5-1.8-5-3.2-5.6-3.2-.6 0-1.1-.4-1.1-.9 0-.7-1.9-1.5-5-2.1-.3-.1-1.2-.8-2-1.5-2-1.8-7.4-2.3-9.2-.8-.7.7-3.5 1.3-6 1.5-2.5.2-4.4.7-4.1 1.1.3.5-.3.8-1.3.7-3.5-.4-4.5 0-3.8 1.2.5.8 0 .7-1.1-.2-1.1-.9-1.6-1-1.1-.3.4.7.3 1.3-.3 1.3-.5 0-1.2-.6-1.4-1.3-.4-1-.6-1-.6 0-.1.7-1 1.3-2 1.3-1.1 0-2.1.4-2.3 1-.1.5-2 1-4 1.2-2.1.1-3.8.5-3.8.8 0 .3-1.7.7-3.7.8-2.1.2-4 .6-4.3 1-.3.4-1.2.7-2 .7-.8-.1-2.4.6-3.4 1.4-1.1.9-1.6 1-1.2.3.4-.6.2-1.2-.3-1.2-.6 0-1.1.4-1.1 1 0 .5-1.3 1-2.8 1-1.5 0-3.2.4-3.7.9-.6.5-2.3 1.1-4 1.2-1.6.2-3.6.8-4.4 1.4-1.2.8-1.3.7-.6-.5.6-1.2.5-1.3-.6-.3-.7.7-2.4 1.3-3.9 1.3-2 0-2.2.2-1 1 .8.5 1 1 .5 1-.6 0-1.7-.6-2.4-1.3-1.1-1-1.3-1-.7 0 .5 1-.4 1.3-3.3 1.3-2.2 0-4.3.4-4.6 1-.3.5-2.5 1-4.8 1.1-3.6.1-3.8.2-1.7.9 2 .6 1.6.8-2.3.9-3.6.1-4.6.4-4.1 1.3.5.8 0 .7-1.1-.2-1.1-.9-1.6-1-1.1-.3.5.9 0 1.3-1.6 1.3-1.3 0-3 .6-3.7 1.2-1.1 1.1-1.2 1-.6-.1.6-1 .4-1.2-.6-.5-.8.5-2.5 1-3.9 1.1-2.4.3-5.2 1.4-9.2 3.4-2.4 1.2-3.7 1.1-1.8-.1.8-.5 1-1 .4-1s-1.4.3-1.8.7c-.8.8-1.3.9-4.2 1.2-.8 0-1.3.5-1 .9.3.5-.1.9-.9.9s-1.1-.5-.8-1.1c.4-.6 0-.5-.9.1-.8.7-1.8 1-2.1.6-.4-.3-.7-.1-.7.5s-.9.9-2 .7c-1.1-.2-2 0-2 .6 0 .5-1.6.9-3.6.9-1.9 0-3.3.4-3 .9.3.5 0 .9-.7.8-5.1-.2-7.8.4-7.1 1.5.5.8 0 .7-1.1-.2-1.1-.9-1.6-1-1.1-.3.5.9 0 1.3-1.8 1.3-1.4 0-2.8.5-3.1 1-.4.6-1.4 1-2.3.9-3.6-.3-6.2.1-6.2 1.2 0 .5.5.7 1 .4.6-.3 1 0 1 .8 0 1.2 2.1 2.4 5.2 3.1.3 0 1.7 1 3 2.1 2.5 2.3 3.1 2.5 5.4 2.5.8 0 1.2.4.9 1-.3.5.1 1 1 1s2.5.9 3.7 2c1.2 1.1 2.8 2 3.5 2 .7 0 1.3.4 1.3 1 0 .5.9 1 2 1s2 .4 2 1c0 .5.7 1 1.6 1 .8 0 1.3.4 1 .8-.3.5.1.9.9 1 .8.1 2.2.3 3 .4.8.1 1.3.4 1 .7-.3.2 1.3 1.3 3.5 2.3 2.3 1.1 4.4 2.6 4.7 3.3.3.8.9 1.3 1.3 1 .5-.3 2.1.6 3.7 1.9 1.6 1.3 3.8 2.6 4.8 2.8 1.1.1 2.7 1.1 3.6 2 .9 1 2.4 1.8 3.3 1.8 1 0 1.4.4 1.1 1-.3.5.3 1 1.5 1s1.9.4 1.6.8c-.3.5.1.9.9 1 .8.1 2.2.3 3 .4.8.1 1.2.5.9 1-.3.4 0 .8.6.8s1.8.7 2.7 1.5c.8.8 1.9 1.3 2.4 1 .5-.4.9-.2.9.4 0 .5 1 1.1 2.3 1.3 1.2.2 2.2.9 2.2 1.7 0 1.3-1.2 1.8-6.2 2.3-1.2.1-1.9.6-1.7 1 .3.4-1.2.8-3.3.8-2.8 0-3.4.3-2.3 1 1.3.9 1.3 1 0 1-.9 0-2.2-.6-2.9-1.3-1.1-1-1.3-1-.7 0 .5.9-.2 1.3-2.4 1.3-1.8 0-2.9.4-2.5 1 .4.6-.8 1-3 1-2.6 0-3.4.3-2.9 1.2.5.8 0 .7-1.1-.2-1-.8-1.6-1-1.2-.4.4.7-.7 1.1-3 1.2-2 .1-4.1.6-4.7 1.2-.5.5-2.1 1-3.4 1-1.3 0-2.1.4-1.8.8.3.5-.1.9-.9.9s-1.2-.4-.9-.9c.3-.4-.5-.4-1.8.1s-4.3 1.5-6.8 2.2c-2.5.7-4.9 1.6-5.5 2.1-.5.4-2.1.8-3.5.8s-3.2.6-3.9 1.2c-1.1 1-1.3 1-.7 0 .4-.6.2-1.2-.3-1.2-.6 0-1.1.4-1.1 1 0 .5-.3.9-.7.9-2.9-.5-5.3.2-4.7 1.3.5.8 0 .7-1.1-.2-1.5-1.2-1.7-1.2-1-.1.6 1.1.4 1.3-.7.8-.9-.3-2.8.1-4.3.9s-4.5 1.4-6.7 1.4c-2.7 0-3.7.4-3.2 1.2.5.8 0 .9-1.4.6-1.2-.4-2.2-.2-2.2.2s-1 .6-2.2.2c-1.5-.4-1.9-.2-1.3.8.5.8.3 1.1-.6.8-.8-.3-3 .1-4.9.9-1.9.8-5.2 1.4-7.2 1.5-2.1 0-3.8.5-3.8 1 0 .6-.9.8-2 .5-1.4-.4-2 0-2 1.1 0 1-.3 1.3-.8.7-.9-1.3-3.5-1.8-2.8-.6.4.5-.2 1-1.1 1-3.9.1-5.3.5-5.3 1.3 0 .4-1.3.8-3 .8-1.6 0-3-.4-3-1 0-.5-.3-.9-.7-.9-.5.1-1.5.1-2.3 0-1.3-.1-1.3-.2 0-1.2 1.2-.9 1.1-1-.7-.6-1.3.3-2.4-.1-2.7-.9-.3-.8-1.5-1.4-2.6-1.4-1.2 0-1.8-.5-1.5-1 .3-.6-.3-1-1.5-1s-1.8-.5-1.5-1c.3-.6-.3-1-1.5-1s-1.9-.4-1.6-.8c.3-.5-.1-.9-.9-1-.8-.1-2.2-.3-3-.4-.8-.1-1.2-.5-1-.9.6-.8-2.6-2.4-5.6-2.8-.5 0-.7-.6-.4-1.1.3-.6-.1-1-.9-1-.9 0-1.6-.4-1.6-1 0-.5-.3-.9-.7-.9-2.1.3-4.4-.2-3.9-.9.3-.5-1.1-1.4-3-2.1-1.9-.7-3.2-1.6-3-2 .3-.4-.1-.8-.9-.9-.8-.1-2.2-.3-3-.4-.8-.1-1.2-.5-.9-1 .3-.4-.2-.8-1-.8-.9 0-1.6-.3-1.6-.8 0-.7-5.5-3.4-6.6-3.2-.3.1-1.1-.5-1.7-1.3-.7-.8-2.8-2.3-4.7-3.3-1.9-1.1-3.7-2.1-4-2.4-.3-.3-1.4-1.2-2.4-2-1.8-1.3-1.9-1.3-1.1 0 .4.8-.4.4-1.9-1s-3.1-2.5-3.4-2.5c-.4 0-.6-.3-.5-.7.2-.5 0-.7-.5-.7-2.2.4-4.2-.2-3.7-1.1.3-.6-.3-1-1.4-1-1.1 0-2.3-.5-2.6-1-.3-.6-1.3-1-2.1-1-1 0-1.2.5-.8 1.2.5.8 0 .7-1.1-.2-1.1-.9-1.6-1-1.1-.3.6 1.2-.4 1.6-3 1.2-.4 0-1.1.5-1.5 1.3-.7 1-.9 1-.9 0 0-.6-.5-1.2-1.1-1.2-.5 0-.7.4-.4 1 .3.5-.3 1.1-1.4 1.1-3 .2-3.4.3-5 1.3-1 .6-1.2.5-.7-.2.4-.6-.5-.5-2 .3s-3.1 1.2-3.6.9c-.4-.3-.8 0-.8.6s-.8 1-1.7.9c-1-.1-3.1-.1-4.8 0-2.3.1-2.7.3-1.5 1.1 1.1.7-.1 1-4 1s-5.1.3-4 1c1.1.7.8 1-1.6 1-1.6 0-3.6.6-4.3 1.2-1.1 1-1.3 1-.7 0 .5-.7.1-1.2-.9-1.2-.9 0-1.3.4-1 1 .4.6-.7 1-2.5 1-2.2 0-2.9.4-2.4 1.2.5.8 0 .7-1.1-.2-1-.8-1.6-1-1.2-.4.6 1.1-1 1.5-7.2 1.6-1.8 0-2.1.2-1 .9 1 .6.1.9-2.7.9-2.2 0-4.5.5-5.1 1.1-.6.6-2.8 1.1-4.8 1.1-2.6 0-3.4.3-2.4.9 1 .6.5.9-1.7.9-1.6 0-3.6.6-4.3 1.2-1.1 1-1.3 1-.7 0 .4-.6.2-1.2-.3-1.2-.6 0-1.1.4-1.1 1 0 .5-1.4 1-3.1 1-1.6 0-2.8.3-2.6.7.3.5-1.1.9-3 1-1.9.1-4.2.8-5.1 1.5-1.3 1.1-1.4 1.1-.7-.2.7-1.2.6-1.3-.6-.3-.9.7-2.9 1.3-4.6 1.5-1.8.1-2.9.6-2.7 1 .3.4-.6.9-2 .9-3.5.2-3.9.3-5.5 1.3-1 .6-1.2.6-.6-.3.9-1.5-3.5.8-4.7 2.4-.5.6-.8.5-.8-.3 0-.6-.8-1.2-1.7-1.2-1.5 0-1.6.2-.3 1 1.1.7.7 1-2 1.1-1.9.1-3.8.1-4.2 0-.5 0-.8.4-.8 1 0 .5-.4.8-.8.5-.5-.3-2.1.1-3.6.9-1.4.8-2.4 1-2.1.5.4-.6.1-1-.4-1-.6 0-1.1.4-1.1.8s-1.2.9-2.7 1c-1.6.1-3 .7-3.1 1.2-.2.6-2.2 1-4.3 1-3 0-3.8.3-3.3 1.2.5.8 0 .7-1.1-.2-1.5-1.2-1.7-1.2-1-.1.6 1.1.2 1.3-1.9.9-1.9-.4-2.6-.1-2.6 1.1 0 1.4-.2 1.4-1 .1-.9-1.3-1.2-1.3-2.4.2-.7 1-1.6 1.5-1.9 1.1-.4-.3-.7-.1-.7.5 0 .7.7 1.2 1.6 1.2.9 0 1.2.5.8 1.2-.4.7-.4 1 .1.6.4-.4 1.7-.1 2.9.7 1.1.8 2.9 1.5 3.9 1.5s1.5.4 1.2 1c-.3.5.1 1 1 1s1.4.4 1.1.8c-.2.4.5.9 1.7.9 1.2.1 2.7.9 3.3 1.7.6.9 1.4 1.3 1.7.9.4-.3.7-.1.7.5 0 .7.6 1.1 1.3 1 .6-.2 1.1.2 1 .9-.2.7.3 1 1.1.7.8-.3 1.7 0 2.1.5.3.6 1.1.8 1.7.5.7-.4.8-.2.4.4-.4.7-.1 1.2.9 1.2.9 0 1.3.4 1 1-.5.9 1.5 1.5 3.8 1.1.4 0 .7.3.7.9 0 .5.7 1 1.6 1 .9 0 1.2.5.8 1.2-.4.6-.3.8.4.4.6-.3 1.7.1 2.5.9.9.8 2.5 1.5 3.7 1.5 1.2 0 1.8.4 1.5 1-.3.5.1 1 1 1s1.4.4 1 .9c-.3.6.4.8 1.5.6 1.1-.2 2 .1 2 .6 0 .6.5.7 1 .4.6-.3 1-.1 1 .4 0 .6.8 1.1 1.8 1.1 1.4 0 1.5.2.2 1s-1.2 1 .5 1.1c1.1.1 2.3.1 2.8 0 .4 0 .7.3.7.9 0 .5.7 1 1.6 1 .8 0 1.3.4 1 .8-.2.4.5.9 1.6.9 1.1.1 2.5.9 3.1 1.8.7.8 2.3 1.7 3.7 2 1.4.3 2.6.9 2.8 1.5.2.5.9 1 1.6 1 .7 0 2.1.9 3.1 2s2.3 2 2.9 2c.6 0 2.2.9 3.6 2s3.4 2 4.4 2c1.1 0 1.6.3 1.3.6-.7.8 5.5 4.4 6.4 3.8.4-.2 1 .3 1.3 1.2.4.9 1.3 1.4 2.1 1 .8-.3 1.4 0 1.2.7-.1.7.8 1.1 2.3 1 1.4-.1 1.9 0 1.2.3-.8.4-.1 1.2 2 2.4 1.8 1 3.7 1.5 4.2 1.2.5-.3.6 0 .2.6-.4.7-.1 1.2.8 1.2s1.6.4 1.6 1c0 .5.9 1 2.1 1 1.1 0 1.7.4 1.4 1-.5.8.7 1.2 3.1.9.3 0 1.3.9 2.3 1.9 1.6 1.9 4 2.5 8.9 2.3 1.6-.1 2.1-.5 1.6-1.4-.5-.7 0-.6 1.1.3 1 .8 1.6 1 1.3.4-.4-.6.9-1 3.5-1.1 2.3-.1 4.3-.6 4.5-1.2.2-.6 1.4-1.1 2.6-1.1 1.3 0 2.6-.3 3-.7.4-.4 1.9-.9 3.4-1.1 1.5-.2 3.1-.7 3.7-1.3.5-.5 2.6-.9 4.8-.9 2.8 0 3.6-.3 3.1-1.3-.5-.7 0-.6 1.1.3 1.3 1 1.6 1.1 1.1.2-.6-1-.3-1.3 1-1.1 1.1.2 3-.3 4.3-1 1.6-.9 2.1-.9 1.6-.1-.9 1.4 3.6-.9 4.7-2.5.5-.6.8-.5.8.4 0 1.1.3 1.1 1.7 0 1.5-1.2 1.6-1.2.8.1-.7 1.2-.5 1.2 1.1-.1 1-.9 2.5-1.4 3.1-1.2.7.3 1.3 0 1.3-.6s.5-1.1 1.1-1.1c.5 0 .8.4.5.9-.6.9 5-.8 7.3-2.3 1-.7 1.2-.5.6.5-.6 1.1-.5 1.2.6.1.7-.6 2.3-1.2 3.6-1.2 1.3 0 2.3-.5 2.3-1 0-.6.5-1 1.1-1 .5 0 .7.6.3 1.2-.6 1-.4 1 .7 0 .7-.6 2.4-1.2 3.7-1.2 1.3 0 2.1-.4 1.8-.8-.2-.4.5-.8 1.7-.9 5.4-.2 8.5-.8 8.1-1.5-.3-.4 1.2-.8 3.3-.8 3 0 3.5-.3 2.3-1.1-1.2-.9-1.1-1 .7-.6 1.3.3 2.5.1 2.8-.3.3-.4 1.4-.6 2.5-.3 1.2.3 2 0 2-.7 0-.9.4-.9 1.7.1 1.1 1 1.4 1 .9.1-.5-.8 0-1.2 1.4-1.2s1.9-.4 1.4-1.3c-.5-.7 0-.6 1.1.3 1.1.9 1.6 1 1.1.2-.4-.6-.3-1.2.3-1.2.5 0 1.2.6 1.4 1.2.4 1 .6 1 .6 0 .1-.6.9-1.2 1.9-1.2 1 0 2.4-.6 3.1-1.3.8-.7 1.1-.7.8-.1-.7 1.2 4.4-.2 7-1.9.7-.4 2.9-.8 5-.9 2.1-.1 4.1-.5 4.4-1 .3-.4 1.8-.9 3.5-1 1.6-.1 3.5-.6 4.1-1.1.7-.5 2.9-.9 4.9-.9 2.5 0 3.3-.3 2.3-.9-1-.6-.3-.9 2.1-.9 2 0 4.1-.5 4.7-1.1.6-.6 2.7-1.1 4.7-1.1s3.6-.3 3.6-.7c0-.4 1.4-.8 3.2-.9 1.7-.2 3.7-.7 4.3-1.2.7-.5 2.8-1.1 4.7-1.2 2-.2 3.4-.6 3.1-1.1-.2-.4 1.3-.7 3.4-.7 2.2 0 4.3-.4 4.9-1 .5-.5 2.2-1.1 3.7-1.2 1.5-.1 2.7-.5 2.7-.8 0-.3 1.7-.7 3.7-.8 2.1-.2 4-.8 4.4-1.3.3-.6.9-1 1.3-1 2.6.4 5.6 0 5.2-.7-.2-.4.3-.8 1.2-.9 5.9-.2 9-.8 8.6-1.5-.3-.4.4-.8 1.5-.8s2.3-.5 2.6-1c.3-.6 1.2-1 1.8-1 .7 0 .6.4-.3 1-2.8 1.8-.1 1 3.5-1 2-1.1 3.4-1.6 3-1-.3.5.1 1 .9 1s1.8-.5 2.1-1c.4-.6 1.1-.8 1.6-.5.5.4.9.2.9-.3 0-.6.9-.8 2-.5 1.1.3 2 .1 2-.4s1.7-1 3.7-1.1c2.1-.2 4-.6 4.3-1 .5-.6 1.8-1.1 4.5-1.6.6-.1 1.6-.6 2.4-1 1-.7 1.2-.5.6.5-.6 1.1-.5 1.2.6.1.7-.6 2.3-1.2 3.5-1.2 1.2 0 2.4-.4 2.6-1 .2-.5 2-1 4.1-1.2 2-.1 3.7-.5 3.7-.9 0-.5.9-.6 2-.4 1.1.2 2-.1 2-.7s.3-.8.7-.5c.3.4 1.3.1 2.1-.6 1.3-1 1.4-.9.8.1-.7 1.2-.4 1.2 1.4.2 1.2-.6 2.8-.9 3.5-.6.8.3 2.1-.1 2.8-.9 1.1-1.1 1.7-1.1 2.7-.2 1 .9 1.1.9.6-.1-.7-1.2 0-1.5 3.6-1.5 1 0 1.5-.4 1.1-1-.4-.6 0-.8 1-.4.9.3 1.9.2 2.2-.4.4-.5 1.1-.7 1.6-.3.5.3 1.7 0 2.6-.8 1.4-1.1 1.6-1.1.8.2-.6 1.2-.5 1.3.6.2.7-.6 2.6-1.2 4.2-1.2 2 0 2.6-.4 2.1-1.3-.5-.7 0-.6 1.1.3 1.1.9 1.6 1 1.1.2-.5-.9.3-1.2 3.1-1.3 3 0 3.4-.2 1.8-.9-1.6-.7-1.1-.9 2.2-.9 2.3-.1 4.5-.6 4.9-1.2.3-.6 2.2-.9 4-.7 2.2.3 3.3 0 3-.7-.2-.6 1.3-1.1 3.7-1.2 2.3-.1 4.3-.7 4.5-1.2.2-.6.8-1.1 1.3-1.1.6 0 .7.4.4 1-.3.6.1.7.9.4.9-.3 1.6-.9 1.6-1.3s1.3-.7 3-.6c1.6.1 2.7-.2 2.4-.7-.3-.4.8-.8 2.3-.8 1.6 0 3.5-.6 4.2-1.3.8-.6 1.1-.7.8-.1-.4.8.3.8 2.8 0 1.8-.6 3.1-1.5 2.7-2.1-.3-.5.3-.3 1.3.5 1.1.9 1.6 1 1.1.2-.5-.9.4-1.2 3.6-1.2 2.8 0 3.8-.3 2.9-.9-.8-.5.4-.9 3.5-.9 2.6-.1 5.1-.6 5.4-1.3.4-.6 1-1 1.4-1 3 .4 4.6-.1 4-1.2-.6-1-.4-1 .7 0 .7.7 1.8 1.3 2.3 1.3.6 0 .4-.5-.4-1-1.1-.7-.7-1 1.8-1 1.8 0 3.1-.4 2.8-.8-.3-.5.1-.9.9-.9s1.1.5.8 1.1c-.3.6 0 .5.8-.2.7-.6 2.5-1.2 4-1.2 3.6 0 9.1-2.4 8.2-3.5-.5-.5 0-.3 1 .4 1.3 1 1.7 1.1 1.7.1 0-.7.8-1 2-.7 1.1.3 2.3.1 2.6-.4.3-.6 1.5-.7 2.6-.3 1.4.4 1.8.2 1.4-.5-.5-.7.4-1.1 2.4-1.1 2.2 0 2.9-.4 2.4-1.3-.6-.9-.4-.9.8.1 1.1.9 1.8 1 2.3.2.3-.5 1.9-1 3.4-1s3.2-.5 3.7-1c.6-.6 2.7-1.2 4.7-1.3 1.9-.1 3.3-.5 3-1-.2-.4 1.2-.7 3.1-.7 2 0 3.6-.5 3.6-1.1 0-.5.4-.8.8-.5.5.3 2-.1 3.5-.9s2.9-1 3.2-.5c.4.6 1.4.6 2.5 0s2.9-1.5 4.1-2.1c1.2-.6 1.9-.6 1.5-.1-.3.5.1.9.9.9s1.2-.4.9-.9c-.3-.4.6-.8 2-.8s2.8-.5 3.1-1c.3-.6 1.7-1 3.1-1 1.7 0 2.3-.4 1.8-1.2-.5-.7-.3-.8.7-.2 1.8 1.1 4 1.4 3.4.5-.2-.5 1-.9 2.8-1 5.4-.3 5.6-.4 5.1-1.3-.3-.4 1.1-.8 3-.8s3.8-.5 4.1-1c.3-.6 1.7-1 3.1-1 1.8 0 2.3-.4 1.8-1.3-.5-.7 0-.6 1.1.3 1 .8 1.6 1 1.2.3-.6-.9.2-1.2 2.8-1.1 2 .1 4.1-.4 4.7-1 .7-.7 2.5-1.2 4.1-1.2 2 0 2.6-.4 2.1-1.3-.5-.7 0-.6 1.1.3 1.1.9 1.6 1 1.1.2s.1-1.2 2.1-1.3c1.5-.1 3.1-.1 3.6 0 .4 0 .7-.3.7-.9 0-.5.5-1 1.1-1 .5 0 .7.6.3 1.2-.4.7.1.6 1.2-.3 1-.8 3.1-1.5 4.6-1.4 1.5 0 2.4-.3 2.2-.7-.3-.4.5-.8 1.8-.8s3-.6 3.6-1.2c1-1 1.5-1 2.1.1.6 1 1 1 1.3.1.2-.6 1.5-1.3 3-1.3 1.4-.1 2.4-.5 2.1-1-.2-.4.9-.7 2.4-.7 1.6 0 3.5-.6 4.2-1.3 1.1-1 1.2-.9.6.1-.6 1.2-.4 1.2 1.6.1 1.3-.7 3.3-1.4 4.4-1.4 2.1-.1 4.8-1 7.6-2.5 1-.5 2.1-.4 2.9.3 1 .9 1.1.9.5-.2-.6-1.1-.4-1.3.8-.8.9.3 1.9.2 2.3-.4.3-.5 1.5-.7 2.6-.3 1.6.5 1.9.3 1.2-.7-.6-1.1-.4-1.1 1 0 1.5 1.2 1.7 1.2 1.4 0-.2-.9.4-1.3 1.5-1.1 1 .2 2.5-.2 3.2-.8.7-.6 1.9-1 2.7-.9 2.6.3 4.9-.1 4.4-.9-.2-.4.6-.9 2-1 1.3-.1 3.5-.3 4.8-.4 1.4-.1 2.3-.5 2-.9-.2-.4.4-.8 1.3-.8 3.8-.1 7.8-1.2 11.7-3.2 1.3-.7 1.6-.7 1.1 0-.3.6-.1 1.1.4 1.1.6 0 1.1-.5 1.1-1.1 0-.6.6-.9 1.4-.6.8.3 2.2-.1 3.3-.8 1-.8 2.3-1.4 2.8-1.5.6 0 .3.5-.5 1-.9.6-1 1-.3 1 .6 0 1.5-.5 1.8-1 .3-.6 1.7-1 3.1-1 1.8 0 2.3-.4 1.8-1.3-.5-.7 0-.6 1.1.3 1.5 1.2 1.7 1.2 1 .1-.6-1.1-.3-1.3 1.3-.9 1.2.4 2.2.2 2.2-.3 0-.4.7-.5 1.7-.2 1.2.5 1.4.3.8-.8-.7-1.2-.6-1.2.7-.1 1.1.9 1.8 1 2.3.2.3-.5 1.5-1 2.6-1 1 0 1.9-.5 1.9-1 0-.6 1.5-1 3.3-1 1.8 0 3.9-.6 4.6-1.3.8-.6 1.1-.7.8-.1-.3.6 0 1.1.8 1.1s1.2-.4.9-.9c-.5-.8.9-1.2 4-.8 1.1.1 1.5-.3 1.2-.9-.6-.9 3.7-1.6 7.4-1.3.3 0 .7-1.4.8-3.1.2-2.4 0-2.8-.8-1.7-.6.9-1 1-1 .3 0-.6.5-1.5 1-1.8.7-.4.6-1.4-.2-2.8-.7-1.2-1.1-2.9-1-3.9.2-.9-.2-1.9-.8-2.3-.5-.3-1-2-1-3.6 0-2.2-.4-2.8-1.2-2.3-.8.5-.7 0 .2-1.1.9-1.1 1-1.6.3-1.1-1.3.7-1.4.4-1.6-5.2-.1-.9-.5-1.9-.9-2.2-.3-.3-.8-1.7-1-3.2-.2-1.5-.7-3-1.1-3.4-.4-.4-.7-2.2-.7-3.9 0-1.7-.3-3.5-.7-3.9-1-.9-3.2-9.5-3.3-12.4 0-1.3-.4-2-1-1.7-.5.3-1 .1-1-.4 0-.6.6-1.1 1.3-1.1.7 0 .8-.3.2-.8-1.4-1-3.9-5.5-2.6-4.7.6.3 1.1-.1 1.1-.9s-.4-1.8-1-2.1c-.5-.3-1-1.7-1-3.1 0-1.3-.4-2.4-1-2.4-.5 0-1-1.3-1-2.8 0-1.5-.6-3.4-1.2-4.1-1.1-1.1-1-1.2.1-.6 1 .6 1.2.4.5-.6-.4-.8-1-2.3-1.1-3.3-.2-1.1-.9-2.6-1.6-3.5-1-1.2-.9-1.3.2-.6 1.1.6 1.2.5.5-.6-.5-.8-1-2.5-1.2-3.9-.2-1.3-.9-2.8-1.5-3.2-.7-.4-.8-.8-.3-.8s.2-.7-.5-1.7c-.8-.9-1.3-1.9-1.1-2.2.2-.3-.1-.7-.6-.9-.5-.1-1.6.7-2.4 1.9zM660.7 232.6c-.3.3-1.2.4-1.9.1-.8-.3-.5-.6.6-.6 1.1-.1 1.7.2 1.3.5z"/><path d="M452.8 250.7c.7.3 1.6.2 1.9-.1.4-.3-.2-.6-1.3-.5-1.1 0-1.4.3-.6.6zM117 338.9c0 .6-.8 1-1.7 1-4.5.2-6.1.6-5.7 1.3.3.4-.7.8-2.1.8-1.4 0-2.4.4-2.1.8.2.4-.7.9-2.2 1-1.5.1-2.8.7-3 1.2-.2.6-1.2 1-2.3 1-1 0-1.9.4-1.9 1 0 .5-.7 1-1.5 1-1.4 0-3.9 1.7-7.7 5.2-1 1-1.8 1.5-1.8 1.2 0-.7-1.6.9-5.3 5.4-1.5 1.9-2.7 3-2.7 2.5 0-.4-.8.6-1.6 2.4-.9 1.8-1.9 3.1-2.3 3-.3-.1-.7.2-.8.7-.1.5-.7 1.3-1.5 1.7-1 .7-1 .9.2.9 1 0 .7.5-.8 1.6-1.2.8-2.2 2.4-2.2 3.4s-1 2.6-2.2 3.4c-1.2.9-1.8 1.6-1.2 1.6.6 0 1.1.7 1.1 1.5s-.4 1.2-.9.9c-.7-.5-1.3 1.8-.9 4 .1.4-.3 1.4-.9 2.1-.6.8-1.2 2.7-1.2 4.4-.1 1.7-.4 2.8-.8 2.6-.4-.2-.7.2-.7 1s.5 1.1 1.1.8c.8-.5.8-.3 0 .8-1.3 1.8-1.6 15.9-.4 15.9.6 0 1 .5 1 1.1 0 .5-.4.8-.8.5-1-.6-.8 2.1.3 4.6.4 1 .8 2.9.9 4.2 0 1.3.5 2.2.9 1.9.5-.3.7.8.5 2.3-.1 1.6.2 2.8.8 2.7.5-.1 1.1.8 1.1 1.9.1 1.1 1.1 3 2.3 4.3 1.1 1.2 1.7 2.4 1.4 2.8-.4.4-.1 1.3.6 2.2.7.8.9 1.5.4 1.5s.2.7 1.4 1.6c1.2.8 2.2 2.2 2.2 3 0 .8.5 1.2 1 .9 1-.6 1.5.9 1 3-.1.5.1.7.5.4.8-.8 6.1 4.3 5.7 5.4-.1.5.2.6.8.2.5-.3 1.3.1 1.6.9.3.9 1.1 1.6 1.8 1.6.6 0 1.8.9 2.6 2s2.2 2 3.2 2 1.8.4 1.8 1c0 .5.7 1 1.6 1 .8 0 1.2.5.9 1-.4.6-.3 1 .2.9 2.1-.4 4.4.2 3.9.9-.5.8.8 1.2 4.7 1.3.9 0 1.5.4 1.3.8-.3.4.8.8 2.5.9 1.7 0 3.6.5 4.3 1.1.9.7 1.6.7 2.6-.2 1-.9 1.1-.9.6 0-.8 1.4.4 1.6 6.7 1.5 2 0 3.5.2 3.3.6-.2.4 1.5.7 3.9.8 2.4 0 4.2-.3 3.9-.8-.3-.4 1.3-.9 3.5-.9 5-.2 5.3-.2 7-1.3.8-.5 1.6-.4 2.2.5.6 1 .9 1.1.9.1 0-.6 1-1.2 2.3-1.2 1.3 0 2.7-.3 3.1-.7.3-.4 1.4-.8 2.4-.9.9-.2 1.8-.8 2-1.3.2-.6 1-1.1 1.9-1.1.8 0 2.1-.7 3-1.5.8-.8 1.9-1.3 2.4-1 .5.4.9.1.9-.4 0-.6.7-1.1 1.5-1.1s1.9-.9 2.5-2c.6-1.1 1.8-2 2.6-2s1.2-.5.9-1c-.3-.6.1-1 .9-1 .9 0 1.6-.5 1.6-1.1 0-.5.5-.7 1.2-.3.8.5.9.2.5-1-.4-1.1-.2-1.6.6-1.4.7.2 1.4-.2 1.7-.7.2-.6 1.2-1.9 2.2-2.9 1-1.1 1.8-2.4 1.8-2.8 0-.5.5-.6 1-.3.6.3 1-.1 1-1 0-1 .5-1.3 1.2-.9.6.4.8.3.4-.4-.3-.6.1-1.7.9-2.5.8-.9 1.5-2.4 1.5-3.5 0-1 .9-2.7 2-3.7s2-3.1 2-4.7.4-2.7.8-2.4c.4.2.9-1 1-2.7.2-1.7.6-3.4 1-3.7.7-.4 1.3-5.5 1.6-12.3 0-.9.4-1.7.8-1.7s.8-.5.8-1.1c0-.5-.4-.8-.8-.5-.5.3-.9-.1-.9-.9s.3-1.2.7-1c.4.2.7-.2.7-1s-.4-1.2-.9-.9c-.5.3-.7-1.5-.5-4 .2-2.5 0-4.6-.4-4.6s-.5-.9-.2-2 0-2.6-.6-3.4c-.6-.7-1.2-2.5-1.3-3.9-.1-1.4-.6-2.3-1-2.1-.4.3-.8-.6-.8-2 0-1.3-.6-2.7-1.2-2.9-1-.4-1-.6 0-.6 1-.1 1-.4 0-1.5-.7-.8-1.6-1.2-2-.9-.5.2-.8-.4-.8-1.5 0-1-.3-2.2-.7-2.6-.5-.4-.8-1.3-.8-1.9-.1-.7-.7-1.1-1.4-.9-.7.1-1-.2-.7-.7.4-.5-.5-2.1-1.9-3.5s-2.3-2.6-2-2.6c.3 0-.8-1.3-2.4-2.9-1.6-1.6-2.7-3.2-2.3-3.7.4-.4.2-.4-.4-.1-.6.3-2.8-.9-4.9-2.8-2.1-1.9-4.2-3.5-4.7-3.5s-1.8-.9-3-2-3-2-4-2c-1.3 0-1.7-.4-1.2-1.3.4-.6.3-.9-.1-.4-.5.4-1.9 0-3.3-.9-1.3-.8-3-1.3-3.8-1-.8.3-1.4.2-1.4-.3 0-.4-.6-.8-1.2-.9-3-.3-9.2-2-7.9-2.1.8 0 1.1-.4.8-.7-.4-.4-1.3-.1-2.2.6-1.1.9-1.5.9-1.5.1 0-.7-.5-.9-1.2-.5-1.7 1.1-4.8 1.3-4.2.3.5-.9-8.3-.5-11.1.5-1.6.6-1.7.6-.5-.3.9-.7 1-1.1.3-1.1-.6 0-1.5.4-1.8 1-.3.5-1.1 1-1.6 1-.6 0-.7-.5-.4-1 .3-.6.1-1-.4-1-.6 0-1.1.4-1.1.9zM269.1 442c-1.1.6-1.1.9 0 1.3 1 .4.8.6-.4.6-2.1.1-6.7 4.4-6.7 6.3 0 .9-.3.9-1-.2-.9-1.3-1-1.3-1 0 0 1.7-6.4 8-8.1 8-.6 0-.7.4-.4 1 .3.5.1 1-.4 1-.6 0-1.1.8-1.1 1.7 0 1.5-.2 1.6-1 .3-.7-1.1-1-1.2-1-.2 0 .8-1.8 3.1-4 5.2-2.1 2-3.6 4-3.3 4.4.4.3 0 .6-.8.6s-2.1.9-2.9 2c-.8 1.1-2.1 2-3 2-1.3 0-1.3.1 0 1 1.2.7 1.2 1 .1 1-.7 0-4.4 3.1-8.2 7-3.7 3.8-7.4 7-8.1 7-.9 0-.9.3.2 1s1.2 1 .2 1c-1.7 0-4.2 2.5-4.2 4.2 0 1-.3.9-1-.2-.8-1.3-1-1.2-1 .2 0 1-.5 1.8-1.1 1.8-.5 0-.7.4-.4 1 .3.5 0 1-.7 1-.8 0-2 .9-2.8 2-.8 1.1-2 2-2.8 2-.7 0-1 .4-.7 1 .3.5.1 1-.4 1-.6 0-1.1.8-1.1 1.7 0 1.5-.2 1.6-1 .3-.7-1.1-1-1.2-1-.2 0 .8-1.8 3.1-4 5.2-2.1 2-3.6 4-3.3 4.4.4.3-.1.6-1 .6s-1.7.8-1.7 1.7c0 1.5-.2 1.6-1 .3-.9-1.3-1-1.3-1 0 0 .9-.9 2.2-2 3-1.1.8-2 2.1-2 2.9 0 .8-.3 1.2-.6.8-.3-.3-3.2 2.1-6.4 5.3-3.3 3.2-6.2 5.5-6.6 5.1-.4-.3-.4-.1-.1.5.4.6-.5 2-1.8 3-1.4 1-2.5 2.8-2.4 3.9 0 1.1.3 1.4.6.7.4-1 .8-1 2.1 0 1.2 1 1.4 1 .8 0-.5-.8.2-1.2 2.4-1.2 1.7 0 2.9.4 2.6.8-.2.4.6.8 1.9.8 1.3 0 2.1-.4 1.9-.8-.6-1 2-1.1 3-.1 1 1.1 3.7 1.2 3 .2-.3-.5.2-.9 1.1-.9.9 0 1.4.4 1.1.8-.2.4.6.8 1.9.8 1.3 0 2.1-.4 1.9-.8-.3-.4.2-.8 1.1-.8.9 0 1.4.4 1.1.8-.3.5.1.9.9.9s1.2-.4.9-.9c-.6-1 2-1.1 3-.1 1 1.1 3.7 1.2 3 .2-.3-.5.2-.9 1.1-.9.9 0 1.4.4 1.1.8-.2.4.6.8 1.9.8 1.3 0 2.1-.4 1.9-.8-.6-1 2-1.1 3-.1s6.6 1.1 6 .1c-.3-.4.2-.8 1.1-.8.9 0 1.4.4 1.1.9-.7 1 2 .9 3-.2 1-1 2.6-.9 2 .1-.3.5.1.9.9.9s1.2-.4.9-.9c-.3-.4.2-.8 1.1-.8.9 0 1.4.4 1.1.8-.2.4.6.8 1.9.8 1.3 0 2.1-.4 1.9-.8-.6-1 2-1.1 3-.1s6.6 1.1 6 .1c-.3-.4.2-.8 1.1-.8.9 0 1.4.4 1.1.9-.7 1 2 .9 3-.2 1-1 2.6-.9 2 .1-.3.5.1.9.9.9s1.2-.4.9-.9c-.3-.4.2-.8 1.1-.8.9 0 1.4.4 1.1.8-.2.4.6.8 1.9.8 1.3 0 2.1-.4 1.9-.8-.3-.4.2-.8 1.1-.8.9 0 1.4.4 1.1.8-.3.5.1.9.9.9s1.2-.4.9-.9c-.6-1 2-1.1 3-.1 1 1.1 3.7 1.2 3 .2-.3-.5.2-.9 1.1-.9.9 0 1.4.4 1.1.8-.2.4.6.8 1.9.8 1.3 0 2.1-.4 1.9-.8-.6-1 2-1.1 3-.1s6.6 1.1 6 .1c-.3-.4.2-.8 1.1-.8.9 0 1.4.4 1.1.9-.7 1 2 .9 3-.2 1-1 2.6-.9 2 .1-.3.5.1.9.9.9s1.2-.4.9-.9c-.3-.4.2-.8 1.1-.8.9 0 1.4.4 1.1.8-.2.4.6.8 1.9.8 1.3 0 2.1-.4 1.9-.8-.6-1 2-1.1 3-.1s6.6 1.1 6 .1c-.3-.4.2-.8 1.1-.8.9 0 1.4.4 1.1.9-.7 1 2 .9 3-.2 1-1 2.6-.9 2 .1-.3.5.1.9.9.9s1.2-.4.9-.9c-.3-.4.2-.8 1.1-.8.9 0 1.4.4 1.1.8-.2.4.6.8 1.9.8 1.3 0 2.1-.4 1.9-.8-.3-.4.2-.8 1.1-.8.9 0 1.4.4 1.1.8-.3.5.1.9.9.9s1.2-.4.9-.9c-.6-1 2-1.1 3-.1 1 1.1 3.7 1.2 3 .2-.3-.5.2-.9 1.1-.9.9 0 1.4.4 1.1.8-.2.4.6.8 1.9.8 1.3 0 2.1-.4 1.9-.8-.3-.4.1-.8 1-.8.8 0 1.7.6 1.9 1.2.3.8.6.6.6-.4.1-1 .6-1.7 1.3-1.5.6.1 1.7-.9 2.4-2.1.8-1.7 1.3-2 1.7-1 .4.9.6.7.6-.5.1-.9.9-1.7 1.9-1.7 1.4 0 1.5-.2.2-1-.8-.5-1-1-.3-1 1.7 0 10.3-8.7 9.5-9.6-.4-.4.1-.4 1.1-.1 1 .4 1.7.2 1.7-.6 0-.7.9-1.9 2-2.7 1.1-.8 2-2.1 2-3 0-1.3.1-1.3 1 0 .6.9 1 1 1 .3s1.1-2.4 2.5-3.8 3.1-2.5 3.8-2.5c.7 0 .6-.4-.3-1-1-.7-1.1-1-.2-1 1.6 0 10.3-8.6 9.5-9.4-.4-.3-.1-.6.5-.6 1.4 0 12.2-10.8 12.2-12.2 0-.6.3-.9.6-.5.4.3 2.8-1.6 5.4-4.3 2.6-2.7 5.1-4.6 5.5-4.2.5.4.5.2.2-.4-.7-1.2 2.6-4.4 4.6-4.4.9 0 .8-.3-.2-.9-.9-.6-1-1.1-.2-1.5.6-.4 1.1-.5 1.1-.1 0 .3 2-1.5 4.5-3.9 2.5-2.5 4.5-5.1 4.5-5.8 0-.9.3-.8 1 .2.8 1.3 1 1.2 1-.3 0-.9.8-1.7 1.8-1.7 1.4 0 1.5-.2.2-1-.9-.6-1-1-.3-1s3-1.8 5.2-4 4.5-4 5.1-4c.6 0 .9-.4.6-.8-.6-1 3.9-5.2 5.5-5.2.5 0 .7-.5.4-1-.3-.6-.1-1 .4-1 .6 0 1.1-.8 1.1-1.8 0-1.5.2-1.5 1.1-.2.9 1.3 1 1.3.6 0-.3-1.2-2.7-1.5-13.3-1.6-8.4-.1-13.4.2-14.3 1-1.1.8-1.3.8-.8-.1 1-1.6-21.2-1.5-23.2.1-1.1.8-1.3.8-.7-.2.5-.9-.2-1.2-2.6-1.2-1.9 0-4 .6-4.7 1.2-1 .9-1.2.9-.7.1.9-1.6-21.3-1.5-23.3.1-1.1.8-1.3.8-.8-.1 1-1.6-21.2-1.5-23.2.1-1.1.8-1.3.8-.8-.1 1-1.6-21.2-1.5-23.2.1-1.1.8-1.3.8-.8-.1 1-1.6-21.2-1.5-23.2.1-1.2.8-1.3.8-.7-.2.6-.9-.9-1.2-6.3-1-4.5.1-6.8.6-6.5 1.2.3.6-.1.3-.8-.6-.9-1-1.9-1.3-2.7-.8zm169.9 2c0 .5-.2 1-.4 1-.3 0-.8-.5-1.1-1-.3-.6-.1-1 .4-1 .6 0 1.1.4 1.1 1zM580 444c-.6 1.1-1.8 2-2.8 2-1.5 0-1.5.2-.2 1s1.2 1-.3 1c-1 0-2 .7-2.3 1.5-.4.8-1 1.2-1.5.9-.5-.3-.8 0-.7.8.2.7-.3 1.2-.9 1-.7-.1-1.2.4-1 1 .1.7-.4 1.2-1 1-.7-.1-1.2.4-1 1 .1.7-.4 1.2-1 1-.7-.1-1.2.4-1 1 .1.7-.5 1.1-1.3 1-.8-.2-1.2-.1-.8.3.8.8-2.4 4.3-3.5 3.8-.4-.3-.6.1-.5.9.2.7-.3 1.2-.9 1.1-.7-.2-1.2.3-1 1 .1.6-.4 1.1-1 1-.7-.2-1.2.3-1 1 .1.6-.4 1.1-1 1-.7-.2-1.2.3-1 1 .1.6-.5 1-1.3.9-.8-.2-1.2-.1-.8.3.8.8-2.4 4.3-3.5 3.8-.4-.3-.6.1-.5.9.2.7-.3 1.2-1 1-.8-.1-1.2.1-.9.5.5 1.1-3 4.3-3.8 3.5-.4-.4-.5 0-.3.8s-.3 1.4-1 1.2c-.6-.1-1.1.4-1 1 .2.7-.3 1.2-1 1-.6-.1-1.1.4-1 1 .2.7-.3 1.2-1 1-.8-.1-1.2.1-.9.5.6 1.1-3 4.3-3.9 3.5-.4-.4-.4-.2 0 .5s-.8 2.2-3.1 3.7c-2.1 1.5-3.1 2.6-2.3 2.6 1.3 0 1.3.2 0 .9-.8.6-1.8.7-2.2.5-.5-.3-.7 0-.6.8.2.7-.3 1.2-.9 1.1-.7-.2-1.2.3-1 1 .1.6-.4 1.1-1 1-.7-.2-1.2.3-1 1 .1.6-.4 1.1-1.1.9-.8-.1-1.1.2-.7.8.3.5-.2 1-1.2 1-1.5 0-1.6.2-.3 1s1.3 1-.2 1c-1 0-2.2.9-2.8 2-.6 1.1-1.8 2-2.8 2-1.5 0-1.5.2-.2 1 1.3.9 1.3 1 0 1.1-.8.1-1.8.1-2.2 0-.5 0-.7.5-.5 1.2.1.6-.4 1.1-1 1-.7-.2-1.2.3-1 1 .1.6-.4 1.1-1 1-.7-.2-1.2.3-1 1 .1.6-.4 1.1-1.1.9-.8-.1-1.1.2-.7.8.3.5-.2 1-1.2 1-1.5 0-1.6.2-.3 1s1.2 1-.3 1c-1 0-2 .7-2.3 1.5-.4.8-1 1.2-1.5.9-.5-.3-.8 0-.7.8.2.7-.3 1.2-.9 1.1-.7-.2-1.2.3-1 1 .1.6-.5 1.1-1.3.9-.8-.2-1.2-.1-.8.3.7.8-8.3 10.1-9.4 9.7-.5-.1-.7.4-.5 1.1.1.6-.4 1.1-1 1-.7-.2-1.2.3-1 1 .1.6-.3 1.1-.8 1-.6-.1-1.1.6-1.1 1.6 0 1.8 3.7 2.4 5.2.8 1-.9 2.6-.9 2.1 0-.3.5.5.8 1.8.8s2.1-.3 1.8-.8c-.5-.9 1.1-.9 2.1 0 .3.4 1.7.8 2.9 1 1.7.2 1.9.1.7-.7-1.2-.8-1.1-1 .8-1 1.3 0 2.1.4 1.8.9-.7 1 2 .9 3-.2 1-1 2.6-.9 2 .1-.3.5.1.9.9.9s1.2-.4.9-.9c-.3-.4.2-.8 1.1-.8.9 0 1.4.4 1.1.8-.2.4.6.8 1.9.8 1.3 0 2.2-.3 2-.7-.3-.3.6-.7 2-.7s2.3.3 2.1.7c-.3.4.8.7 2.4.6 1.5 0 2.6-.3 2.3-.7-.2-.5.3-.8 1.2-.8.9 0 1.4.4 1.1.9-.7 1 2 .9 3-.2 1-1 2.6-.9 2 .1-.3.5.1.9.9.9s1.2-.4.9-.9c-.3-.4.2-.8 1.1-.8.9 0 1.4.4 1.1.8-.2.4.6.8 1.9.8 1.3 0 2.1-.4 1.9-.8-.6-1 2-1.1 3-.1s8.6 1.1 8 .1c-.3-.4.9-.8 2.6-.8 1.7 0 2.9.4 2.6.8-.2.4.6.8 1.9.8 1.3 0 2.1-.4 1.9-.8-.6-1 2-1.1 3-.1 1 1.1 3.7 1.2 3 .2-.3-.5.2-.9 1.1-.9.9 0 1.4.4 1.1.8-.2.4.6.8 1.9.8 1.3 0 2.1-.4 1.9-.8-.6-1 2-1.1 3-.1s10.6 1.1 10 .1c-.3-.4.5-.8 1.8-.8 1.7 0 1.9.3.9.9-.8.6-.1.8 2.2.7 1.9 0 3.3-.4 3-.9-.2-.4.6-.7 1.9-.7 1.7 0 1.9.3.9.9-.8.6-.1.8 2.2.7 1.9 0 3.3-.4 3-.9-.2-.4.6-.7 1.9-.7 1.7 0 1.9.3.9.9-.8.6-.1.8 2.2.7 1.9 0 3.3-.4 3-.9-.2-.4.6-.7 1.9-.7 1.7 0 1.9.3.9.9-.9.6-.4.8 1.7.8 1.7-.1 2.8-.5 2.6-.9-.6-1 2-1.1 3-.1 1 1.1 3.7 1.2 3 .2-.3-.5.2-.9 1.1-.9.9 0 1.4.4 1.1.8-.2.4.6.8 1.9.8 1.3 0 2.1-.4 1.9-.8-.6-1 2-1.1 3-.1s6.6 1.1 6 .1c-.3-.4.2-.8 1.1-.8.9 0 1.4.4 1.1.9-.7 1 2 .9 3-.2 1-1 2.6-.9 2 .1-.3.5.1.9.9.9s1.2-.4.9-.9c-.3-.4.2-.8 1.1-.8.9 0 1.4.4 1.1.8-.2.4.6.8 1.9.8 1.3 0 2.1-.4 1.9-.8-.3-.4.2-.8 1.1-.8.9 0 1.4.4 1 1-.3.5.6.3 2-.4 3-1.6 10.1-8.7 9.8-9.8-.3-.8 1.3-1.2 3-.9.5.1.6-.2.3-.7-.6-1 .4-2.4 2.9-3.9 1.1-.6 1.9-1.6 1.8-2.2-.2-.6.3-1 1-.8.6.1 1.1-.4 1-1-.2-.7 0-1.2.5-1 .4.1.8-.2.9-.7.1-.5 1.2-1.4 2.5-2.1 1.3-.6 2.2-1.7 2.1-2.3-.2-.7.3-1.1 1-.9.6.1 1.1-.4 1-1-.2-.7.3-1.2 1-1 .6.1 1.1-.4 1-1-.2-.7 0-1.2.5-1 .4.1.8-.2.9-.7.1-.5 1.2-1.4 2.5-2.1 1.3-.6 2.2-1.7 2.1-2.3-.2-.7.3-1.1 1-.9.6.1 1.1-.4 1-1-.2-.7.2-1.2.9-1 .6.1 1.7-.8 2.3-2 .7-1.3 1.5-2 1.8-1.6.4.3.7.1.7-.6s.5-.9 1-.6c.6.4 1 .3.9-.2-.3-1.7.1-3.3.9-3.1 1.1.4 9.2-7.5 9.2-8.9 0-.7.6-1.2 1.3-1 .6.1 1.1-.4 1-1-.2-.7.3-1.2 1-1 .6.1 1.1-.4 1-1-.2-.7.3-1.2 1-1 .6.1 1.1-.4 1-1-.2-.7.2-1.2.9-1 .6.1 1.7-.8 2.3-2.1.7-1.3 1.6-2.4 2.1-2.5.5-.1.8-.5.7-.9-.2-.5.3-.7 1-.5.6.1 1.1-.4 1-1-.2-.7.2-1.2.9-1 .6.1 1.7-.8 2.3-2 .7-1.3 1.5-2 1.8-1.6.4.3.7.1.7-.6s.5-.9 1-.6c.6.4 1 .3.9-.2-.3-1.8.1-3.3.9-3 1 .3 11.8-10.5 11.5-11.5-.3-.8 1.2-1.2 3-.9.5.1.6-.3.2-.9-.3-.5-.1-1 .6-1s.9-.3.6-.7c-.4-.3.3-1.1 1.6-1.8 1.2-.6 2.1-1.7 1.9-2.4-.1-.7.2-1 .7-.7.5.4 1.6-.3 2.4-1.4.7-1.1 1.8-1.7 2.3-1.2.5.4 0-.3-1-1.6-1.5-1.7-2.2-1.9-2.8-1-.6 1-.8 1-.8 0 0-.6-1.2-1.2-2.6-1.2-1.7 0-2.3.4-1.8 1.2.6 1 .5 1-.7.2-1.9-1.6-16.2-1.6-15.2-.1.5.9.3.9-.8.1-1.9-1.6-16.2-1.6-15.2-.1.4.7 0 .6-1-.1-1.8-1.5-7.4-1.4-9.6.2-1.1.8-1.3.8-.8-.1 1-1.6-21.2-1.5-23.2.1-1.1.8-1.3.8-.8-.1 1-1.6-21.2-1.5-23.2.1-1.1.8-1.3.8-.8-.1 1-1.6-21.2-1.5-23.2.1-1.1.8-1.3.8-.8-.1 1-1.6-21.2-1.5-23.2.1-1.1.8-1.3.8-.8-.1 1-1.6-21.2-1.5-23.2.1-1.1.8-1.3.8-.7-.2.4-.6.5-1.2.2-1.2s-1 .9-1.6 2zM752.5 443c.4.6 1.1.8 1.6.5 1.4-.9 1.1-1.5-.7-1.5-.8 0-1.2.5-.9 1zM894.2 443.2c1 .6 1 .8-.2.8-1.7 0-8 6.4-8 8.1 0 .6-.4.7-1 .4-.5-.3-1-.1-1 .4 0 .6-.8 1.1-1.7 1.1-1.5 0-1.6.2-.3 1 1.1.7 1.2 1 .2 1-.8 0-3.1 1.8-5.2 4-2 2.1-4 3.6-4.4 3.3-.3-.4-.6-.1-.6.6 0 .6-1.5 2.7-3.4 4.6-1.9 1.8-3.7 3.1-4 2.8-.3-.4-.6.1-.6 1s-.4 1.7-1 1.7c-.5 0-1 .7-1 1.5 0 .9-.6 1.2-1.7.8-.9-.4-1.4-.2-1.1.3.6 1.1-9.8 11.5-10.6 10.7-.3-.4-.6.1-.6 1s-.8 1.7-1.7 1.7c-1.5 0-1.6.2-.3 1s1.2 1-.2 1c-1 0-1.8.5-1.8 1.1 0 .5-.4.7-1 .4-.5-.3-1 0-1 .7 0 .8-.9 2-2 2.8-1.1.8-2 2-2 2.7 0 .8-.7 1-1.7.6-1-.3-1.5-.3-1.2.1.9 1-29.3 31.4-30.5 30.8-.5-.3-.7.2-.3 1.1.4 1 .1 1.7-.6 1.7s-1.9.9-2.7 2c-.8 1.1-2.1 2-3 2-1.3 0-1.3.1 0 1 1.3.8 1.2 1-.2 1-1 0-1.8.4-1.8 1 0 .5-.7 1-1.6 1-.8 0-1.3.4-1 .9.4.5 0 1.2-.6 1.5-1.1.5-1.1.7 0 1.2.6.3 1 .9.8 1.3-.3.4.1.8.9.8s1.2-.4.9-.9c-.3-.4.5-.8 1.8-.8 1.7 0 1.9.3.9.9-.9.6-.4.8 1.7.8 1.7-.1 2.8-.5 2.6-.9-.6-1 2-1.1 3-.1 1 1.1 3.7 1.2 3 .2-.3-.5.2-.9 1.1-.9.9 0 1.4.4 1.1.8-.2.4.6.8 1.9.8 1.3 0 2.1-.4 1.9-.8-.6-1 2-1.1 3-.1s6.6 1.1 6 .1c-.3-.4.2-.8 1.1-.8.9 0 1.4.4 1.1.9-.7 1 2 .9 3-.2 1-1 2.6-.9 2 .1-.3.5.1.9.9.9s1.2-.4.9-.9c-.3-.4.2-.8 1.1-.8.9 0 1.4.4 1.1.8-.2.4.6.8 1.9.8 1.3 0 2.1-.4 1.9-.8-.6-1 2-1.1 3-.1s6.6 1.1 6 .1c-.3-.4.2-.8 1.1-.8.9 0 1.4.4 1.1.9-.7 1 2 .9 3-.2 1-1 2.6-.9 2 .1-.3.5.1.9.9.9s1.2-.4.9-.9c-.3-.4.2-.8 1.1-.8.9 0 1.4.4 1.1.8-.2.4.6.8 1.9.8 1.3 0 2.1-.4 1.9-.8-.3-.4.2-.8 1.1-.8.9 0 1.4.4 1.1.8-.2.4.4.8 1.4.8 1 0 1.6-.4 1.4-.8-.3-.4.5-.8 1.8-.8 1.7 0 1.9.3.9.9-.8.6-.1.8 2.2.7 1.9 0 3.3-.4 3-.9-.2-.4.6-.7 1.9-.7 1.7 0 1.9.3.9.9-.8.6-.1.8 2.2.7 1.9 0 3.3-.4 3-.9-.2-.4.6-.7 1.9-.7 1.7 0 1.9.3.9.9-.8.6-.1.8 2.2.7 1.9 0 3.3-.4 3-.9-.2-.4.6-.7 1.9-.7 1.9 0 2 .2.8 1.1-1.3.9-1.2 1 .3.5.9-.3 2.4-.9 3.4-1.3.9-.4 1.4-.2 1 .3-.3.6.7 1 2.3.9 1.5 0 2.6-.3 2.3-.7-.2-.5.3-.8 1.2-.8.9 0 1.4.4 1.1.9-.7 1 2 .9 3-.2 1-1 2.6-.9 2 .1-.3.5.1.9.9.9s1.2-.4.9-.9c-.3-.4.2-.8 1.1-.8.9 0 1.4.4 1.1.8-.2.4.6.8 1.9.8 1.3 0 2.1-.4 1.9-.8-.6-1 2-1.1 3-.1s8.6 1.1 8 .1c-.3-.4.9-.8 2.6-.8 1.7 0 2.9.4 2.6.8-.2.4.6.8 1.9.8 1.3 0 2.1-.4 1.9-.8-.6-1 2-1.1 3-.1 1 1.1 3.7 1.2 3 .2-.3-.5.2-.9 1.1-.9.9 0 1.4.4 1.1.8-.2.4.6.8 1.9.8 1.3 0 2.1-.4 1.9-.8-.6-1 2-1.1 3-.1s6.6 1.1 6 .1c-.3-.4.5-.8 1.8-.8 1.9 0 2 .2.8 1.1-1.3.9-1.3 1 0 .6 1.3-.3 1.5-7.2 1.8-53l.2-52.5-6-.1c-4.4 0-5.9.3-5.3 1.2.5.9.3.9-.8.1-1.9-1.6-16.2-1.6-15.2-.1.5.9.3.9-.8.1-1.9-1.6-16.2-1.6-15.2-.1.5.9.3.9-.8 0-.9-.7-5.9-1.1-14.2-1-7 0-12.2.4-11.5.9zM129.5 580.9c-.3.6-14.4 1-34.8.9l-34.2-.1-.2 146.2c-.2 94.3.1 146 .7 145.6.6-.3.9.2.8 1.2-.3 4.1.3 9.4 1 8.9.4-.2.9 1.1 1 3.1.2 2 .6 4.1 1 4.7.7 1.2.9 1.8 1.1 4.2 0 .8.6 1.2 1.1.9.6-.4.9-.3.8.2-.6 1.7 2.5 9.2 3.5 8.6.6-.4.8 0 .4 1-.3 1-.2 1.7.4 1.7.6 0 .8.4.5.9-.3.5.1 1.4.9 2.1.8.7 1.2 1.6.9 2.1-.3.5-.1.9.4.9s1.5 1.1 2.2 2.5c.7 1.3 1.8 2.2 2.3 1.8.6-.3.7-.2.4.4-.9 1.4 4.2 8.5 5.5 7.7.6-.4.8-.3.5.3-.8 1.2 2.7 5.6 3.7 4.6.3-.3.6.1.6 1s.7 1.7 1.6 1.7c.8 0 1.3.3 1.1.8-.6.9 1.9 3.3 2.7 2.5.3-.4.6-.1.6.6s.5.9 1 .6c.6-.4.9-.1.8.5-.2.7.6 1.7 1.7 2.3 1.1.7 2.7 2 3.7 3 .9 1 2.5 1.9 3.6 2 1.2 0 1.8.5 1.6.9-.3.4 0 .8.6.8s.8.5.5 1c-.4.6-.3 1 .2.9 2.2-.4 5.4.2 4.9.9-.6 1 8.2 5.2 10.8 5.2.9 0 1.5.4 1.2.9-.4.5.2.8 1.1.7 1-.2 3.3.5 5.2 1.5 1.9 1 3.8 1.6 4.3 1.3.5-.3 1.6 0 2.5.8 1.4 1.1 1.6 1.1.8-.2-.6-1.2-.5-1.3.6-.3.7.7 2.8 1.3 4.5 1.3 1.8 0 3.6.5 3.9 1 .5.8 1.1.8 2 0 1-.8 1.4-.7 1.7.2.4 1 .9 1 2.3-.2 1.1-.9 1.6-1 1.1-.3-.6 1 71.3 1.3 357.7 1.3 197.1 0 358.7-.3 359.1-.7.8-.8 1.3-.9 7.1-1.2 3.1-.1 3.7-.4 2.5-1.2-1.2-.8-.9-.9 1.2-.5 1.5.3 2.9.2 3.2-.3.3-.5 1.5-.7 2.6-.4 1.1.3 2 0 2-.6s.9-1.1 2-1.1 2-.5 2-1.1c0-.8.6-.7 1.7.2 1.1 1 1.4 1 .9.1-.5-.8 0-1.2 1.4-1.2s1.9-.4 1.4-1.2c-.5-.8-.2-.9.9-.5 1 .3 1.7.2 1.7-.3s.7-.6 1.7-.3c1 .4 1.4.2 1-.4-.4-.6 1.1-1.6 3.3-2.3 2.2-.7 4-1.7 4-2.2 0-.4.7-.8 1.5-.8.9 0 2-1 2.5-2.3.5-1.2.9-1.6.9-.9.1.8 1.2.2 2.7-1.3 1.4-1.4 3-2.3 3.5-1.9.5.3.8 0 .7-.8-.2-.7.3-1.2 1-1 .6.1 1.2-.5 1.2-1.5 0-.9.3-1.3.7-1 .3.4 1.5-.5 2.5-2 1-1.6 1.8-2.4 1.8-2 0 .5.7.2 1.5-.7.8-.8 1.5-2.3 1.5-3.3 0-1.3.3-1.4.8-.5.6.9 1.2.6 2.2-1.2.7-1.4 1.8-2.3 2.3-1.9.6.3.7.1.4-.4-.4-.6 0-1.6.8-2.3.8-.7 1.5-1.9 1.5-2.7 0-.8.5-1.1 1-.8.6.3 1-.3 1-1.5s.5-1.8 1-1.5c.5.3 1-.2 1-1.2.1-2.2 2.4-5.5 3.3-4.6.4.3.7-.1.7-1s.9-3.2 2-5.2 2-4.6 2-6c0-1.3.5-2.7 1-3 .6-.3 1-1.5 1-2.6s.4-1.8.8-1.5c.4.2.9-.6 1-2 .3-4.5.5-5.4 1.2-5.4.4 0 .7-.6.7-1.3.1-.6.2-3.1.4-5.4.1-2.3.6-4 1-3.7.5.3.9-65.2.9-145.6 0-116.8-.2-146-1.2-146.1-.7-.1-2.8-.1-4.5 0-2.1.1-3.3-.3-3.3-1.1s-.3-.9-.8-.3c-1.1 1.5-6.4 1.7-5.6.2.5-.9.3-.9-.7 0-.7.7-2 1.3-2.8 1.3-1.4 0-1.4-.1-.1-1 .9-.6 1-1 .3-1-.6 0-1.5.4-1.8 1-.9 1.4-4.5 1.2-4.5-.3 0-.7-.3-.8-.8-.2-1.1 1.5-6.4 1.7-5.6.2.5-.9.3-.9-.7 0-.7.7-2 1.3-2.8 1.3-1.4 0-1.4-.1-.1-1 .9-.6 1-1 .3-1-.6 0-1.5.4-1.8 1-.9 1.4-4.5 1.2-4.5-.3 0-.7-.3-.8-.8-.2-1.1 1.5-6.4 1.7-5.6.2.5-.9.3-.9-.7 0-.7.7-2 1.3-2.8 1.3-1.4 0-1.4-.1-.1-1 .9-.6 1-1 .3-1-.6 0-1.5.4-1.8 1-.9 1.4-4.5 1.2-4.5-.3 0-.7-.3-.8-.8-.2-1.1 1.5-6.4 1.7-5.5.2.5-.9.3-.9-.8 0-2 1.6-132.2 1.6-131.2-.1.3-.6 0-.6-.8.1-1.7 1.7-4.9 1.7-4.9 0 0-.7-.3-.8-.8-.2-1.1 1.5-6.4 1.7-5.6.2.5-.9.3-.9-.7 0-.7.7-2 1.3-2.9 1.3-1.3 0-1.3-.1 0-1 .9-.6 1-1 .3-1-.6 0-1.5.4-1.8 1-.9 1.4-4.5 1.2-4.5-.3 0-.7-.3-.8-.8-.2-1.1 1.5-6.4 1.7-5.6.2.5-.9.3-.9-.7 0-.7.7-2 1.3-2.9 1.3-1.3 0-1.3-.1 0-1 .9-.6 1-1 .3-1-.6 0-1.5.4-1.8 1-.9 1.4-4.5 1.2-4.5-.3 0-.7-.3-.8-.8-.2-1.1 1.5-6.4 1.7-5.6.2.5-.9.3-.9-.7 0-.7.7-2 1.3-2.9 1.3-1.3 0-1.3-.1 0-1 .9-.6 1-1 .3-1-.6 0-1.5.4-1.8 1-.9 1.4-4.5 1.2-4.5-.3 0-.7-.3-.8-.8-.2-1.1 1.5-6.4 1.7-5.5.2.5-.9.4-.9-.8 0-1.9 1.5-130.2 1.6-129.2 0 .4-.6.1-.7-.8-.1-2.4 1.5-6.2 1.6-7 .2-.5-.7-.9-.8-.9-.3 0 .6-1.3 1.1-3 1.1-1.9.1-2.8-.2-2.3-1 .3-.6 0-.6-.8.1-.7.7-2 1.3-2.9 1.3-1.3 0-1.3-.1 0-1 .9-.6 1-1 .3-1-.6 0-1.5.4-1.8 1-.9 1.4-4.5 1.2-4.5-.3 0-.7-.3-.8-.8-.2-1.1 1.5-6.4 1.7-5.6.2.5-.9.3-.9-.7 0-.7.7-2 1.3-2.9 1.3-1.3 0-1.3-.1 0-1 .9-.6 1-1 .3-1-.6 0-1.5.4-1.8 1-.9 1.4-4.5 1.2-4.5-.3 0-.7-.3-.8-.8-.2-1.1 1.5-6.4 1.7-5.6.2.5-.9.3-.9-.7 0-.7.7-2 1.3-2.9 1.3-1.3 0-1.3-.1 0-1 .9-.6 1-1 .3-1-.6 0-1.5.4-1.8 1-.9 1.4-4.5 1.2-4.5-.3 0-.7-.3-.8-.8-.2-1.1 1.5-6.4 1.7-5.5.2.5-.9.4-.9-.8 0-2 1.6-130.2 1.6-129.2-.1.5-.8.3-.8-.8.1-2 1.6-128.2 1.6-127.2-.1.5-.8.3-.8-.8.1-1.7 1.4-128.2 1.6-127.3.2.3-.5.3-.9 0-.9s-.7.4-1.1.9z"/></svg>