<svg aria-hidden="true" style="width:0;height:0;position:absolute;overflow:hidden" xmlns="http://www.w3.org/2000/svg"><defs><symbol id="icon-chevron-down" viewBox="0 0 16 16"><path d="m3.5 5.75 4.5 4.5 4.5-4.5" stroke="#fff" stroke-linecap="round" stroke-linejoin="round"/></symbol><symbol id="icon-chevron-up" viewBox="0 0 32 32"><path stroke-linejoin="round" stroke-linecap="round" stroke-width="2" d="m7 20.5 9-9 9 9"/></symbol><symbol id="icon-close-outline" viewBox="0 0 32 32"><path stroke-linejoin="round" stroke-linecap="round" stroke-width="1.333" d="M23 23 9 9m14 0L9 23"/></symbol><symbol id="icon-moon" viewBox="0 0 32 32"><path stroke-linejoin="round" stroke-linecap="round" stroke-width="2.909" d="M2.769 16.96c.515 7.302 6.772 13.245 14.26 13.571a15.074 15.074 0 0 0 12.816-6.015l.028-.039c1.172-1.574.544-2.624-1.42-2.269-.96.172-1.946.241-2.976.198-7.002-.282-12.73-6.08-12.759-12.931V9.38c0-1.838.396-3.584 1.109-5.156l-.032.079c.771-1.76-.16-2.595-1.949-1.844-5.67 2.368-9.548 8.026-9.076 14.505z"/></symbol><symbol id="icon-search" viewBox="0 0 32 32"><path stroke-linejoin="round" stroke-linecap="round" stroke-width="2.311" d="M14.667 25.333c5.891 0 10.667-4.776 10.667-10.667S20.558 3.999 14.667 3.999 4 8.775 4 14.666s4.776 10.667 10.667 10.667zM28 28l-5.799-5.799"/></symbol><symbol id="icon-sun" viewBox="0 0 32 32"><path stroke-linejoin="round" stroke-linecap="round" stroke-width="2.327" d="M16.684 24.329c4.736 0 8.576-3.732 8.576-8.332 0-4.602-3.84-8.332-8.576-8.332-4.733 0-8.573 3.729-8.573 8.332 0 4.599 3.84 8.332 8.573 8.332z"/><path stroke-linejoin="round" stroke-linecap="round" stroke-width="2.909" d="m26.135 6.825.175-.169M7.069 25.35l.175-.172m9.445-22.161v-.105m0 26.182v-.105M3.322 16.003h-.108m26.947 0h-.108M7.247 6.825l-.177-.169M26.31 25.35l-.175-.172"/></symbol><symbol id="icon-chevron-forward-outline" viewBox="0 0 20 20"><path d="M7.188 4.375 12.813 10l-5.626 5.625" stroke-linecap="round" stroke-linejoin="round"/></symbol><symbol id="icon-chevron-back-outline" viewBox="0 0 20 20"><path d="M12.813 4.375 7.186 10l5.625 5.625" stroke-linecap="round" stroke-linejoin="round"/></symbol><symbol id="icon-heart" viewBox="0 0 14 14"><path d="m7 13.377-.98-.97C2.38 9.217 0 7.07 0 4.435 0 2.287 1.68.624 3.85.624c1.19 0 2.38.554 3.15 1.455A4.224 4.224 0 0 1 10.15.624C12.32.624 14 2.287 14 4.436c0 2.634-2.38 4.782-6.02 7.97l-.98.97Z"/></symbol></defs></svg>