<svg aria-hidden="true" style="position: absolute; width: 0; height: 0; overflow: hidden;" xmlns="http://www.w3.org/2000/svg">
<defs>
<symbol id="icon-chevron-down" viewBox="0 0 16 16" >
<path d="M3.5 5.75L8 10.25L12.5 5.75" stroke="white" stroke-linecap="round" stroke-linejoin="round"/>
</symbol>
<symbol id="icon-chevron-up" viewBox="0 0 32 32">
<path stroke-linejoin="round" stroke-linecap="round" stroke-miterlimit="4" stroke-width="2" d="M7 20.5l9-9 9 9"></path>
</symbol>
<symbol id="icon-close-outline" viewBox="0 0 32 32">
<path stroke-linejoin="round" stroke-linecap="round" stroke-miterlimit="4" stroke-width="1.3333" d="M23 23l-14-14M23 9l-14 14"></path>
</symbol>
<symbol id="icon-moon" viewBox="0 0 32 32">
<path stroke-linejoin="round" stroke-linecap="round" stroke-miterlimit="4" stroke-width="2.9091" d="M2.769 16.96c0.515 7.302 6.772 13.245 14.26 13.571 0.221 0.012 0.48 0.018 0.741 0.018 4.937 0 9.32-2.369 12.075-6.033l0.028-0.039c1.172-1.574 0.544-2.624-1.42-2.269-0.96 0.172-1.946 0.241-2.976 0.198-7.002-0.282-12.73-6.080-12.759-12.931-0-0.028-0-0.062-0-0.095 0-1.838 0.396-3.584 1.109-5.156l-0.032 0.079c0.771-1.76-0.16-2.595-1.949-1.844-5.67 2.368-9.548 8.026-9.076 14.505z"></path>
</symbol>
<symbol id="icon-search" viewBox="0 0 32 32">
<path stroke-linejoin="round" stroke-linecap="round" stroke-miterlimit="4" stroke-width="2.3111" d="M14.667 25.333c5.891 0 10.667-4.776 10.667-10.667s-4.776-10.667-10.667-10.667v0c-5.891 0-10.667 4.776-10.667 10.667s4.776 10.667 10.667 10.667v0zM28 28l-5.799-5.799"></path>
</symbol>
<symbol id="icon-sun" viewBox="0 0 32 32">
<path stroke-linejoin="round" stroke-linecap="round" stroke-miterlimit="4" stroke-width="2.3273" d="M16.684 24.329c4.736 0 8.576-3.732 8.576-8.332 0-4.602-3.84-8.332-8.576-8.332-4.733 0-8.573 3.729-8.573 8.332 0 4.599 3.84 8.332 8.573 8.332z"></path>
<path stroke-linejoin="round" stroke-linecap="round" stroke-miterlimit="4" stroke-width="2.9091" d="M26.135 6.825l0.175-0.169M7.069 25.35l0.175-0.172M16.689 3.017v-0.105M16.689 29.094v-0.105M3.322 16.003h-0.108M30.161 16.003h-0.108M7.247 6.825l-0.177-0.169M26.31 25.35l-0.175-0.172"></path>
</symbol>
<symbol id="icon-chevron-forward-outline" viewBox="0 0 20 20">
<path d="M7.1875 4.375L12.8125 10L7.1875 15.625" stroke-linecap="round" stroke-linejoin="round"/>
</symbol>
<symbol id="icon-chevron-back-outline" viewBox="0 0 20 20">
<path d="M12.8125 4.375L7.1875 10L12.8125 15.625" stroke-linecap="round" stroke-linejoin="round"/>
</symbol>
<symbol id="icon-left" width="28" height="28" viewBox="0 0 28 28" fill="none">
<path d="M17.9375 6.125L10.0625 14L17.9375 21.875" stroke="#F8F8F8" stroke-width="2" stroke-linecap="round" stroke-linejoin="round"/>
</symbol>
<symbol id="icon-right" width="28" height="28" viewBox="0 0 28 28" fill="none">
<path d="M10.0625 6.125L17.9375 14L10.0625 21.875" stroke="#F8F8F8" stroke-width="2" stroke-linecap="round" stroke-linejoin="round"/>
</symbol>
<symbol id="icon-heart" viewBox="0 0 14 14">
<path d="M7 13.3765L6.02 12.4062C2.38 9.21808 0 7.06957 0 4.4359C0 2.28739 1.68 0.624023 3.85 0.624023C5.04 0.624023 6.23 1.17848 7 2.07947C7.77 1.17848 8.96 0.624023 10.15 0.624023C12.32 0.624023 14 2.28739 14 4.4359C14 7.06957 11.62 9.21808 7.98 12.4062L7 13.3765Z"/>
</symbol>
<symbol id="icon-square-up" viewBox="0 0 48 48">
      <path fill="#f87719" d="M26.356 44a1.513 1.513 0 0 1-1.512-1.512v-.018h.034a1.53 1.53 0 0 1 1.528-1.53h5.088c6.106 0 9.446-3.34 9.446-9.428v-15c0-6.092-3.36-9.452-9.446-9.452h-15c-6.068 0-9.428 3.36-9.428 9.446v15c0 6.086 3.36 9.428 9.428 9.428.844 0 1.53.686 1.53 1.53s-.686 1.53-1.53 1.53C8.784 44 4 39.216 4 31.512V16.506C4 8.784 8.784 4 16.488 4h15C39.214 4 44 8.784 44 16.506v15C44 39.18 39.214 44 31.494 44zm-2.357-10.328a1.5 1.5 0 0 1-1.5-1.5V15.828a1.511 1.511 0 0 1 .442-1.062c.014-.016.032-.02.046-.034.132-.118.276-.22.44-.288.162-.066.332-.094.502-.102.026-.002.044-.014.07-.014.198 0 .392.04.574.116a1.469 1.469 0 0 1 .488.326l7.496 7.528a1.498 1.498 0 0 1-.004 2.12 1.496 1.496 0 0 1-2.12-.004l-4.934-4.954v12.712a1.5 1.5 0 0 1-1.5 1.5zm-6.434-9.258a1.498 1.498 0 0 1-2.562-1.06c0-.382.146-.764.438-1.058l2.556-2.568a1.502 1.502 0 0 1 2.122-.004c.586.586.586 1.534.002 2.122z"/>
    </symbol>
</svg>