<svg width="18" height="18" viewBox="0 0 18 18" fill="none" xmlns="http://www.w3.org/2000/svg">
<path fill-rule="evenodd" clip-rule="evenodd" d="M15.3761 2.62393C11.8681 -0.884089 6.16958 -0.873235 2.64817 2.64817C-0.873235 6.16958 -0.884088 11.8681 2.62393 15.3761C6.13195 18.8841 11.8304 18.8732 15.3518 15.3518C18.8732 11.8304 18.8841 6.13195 15.3761 2.62393ZM14.6146 3.16427C14.3882 2.92231 14.0085 2.9097 13.7665 3.13611C13.5246 3.36252 13.512 3.74221 13.7384 3.98417C16.3998 6.82847 16.3923 11.4698 13.7142 14.3318C13.4878 14.5738 13.5004 14.9535 13.7424 15.1799C13.9844 15.4063 14.364 15.3937 14.5905 15.1517C17.697 11.8318 17.711 6.47339 14.6146 3.16427Z" fill="white"/>
</svg>
