<?xml version="1.0" standalone="no"?>
<!DOCTYPE svg PUBLIC "-//W3C//DTD SVG 20010904//EN"
 "http://www.w3.org/TR/2001/REC-SVG-20010904/DTD/svg10.dtd">
<svg version="1.0" xmlns="http://www.w3.org/2000/svg"
 width="1024.000000pt" height="1024.000000pt" viewBox="0 0 1024.000000 1024.000000"
 preserveAspectRatio="xMidYMid meet">
<metadata>
Created by potrace 1.14, written by Peter Selinger 2001-2017
</metadata>
<g transform="translate(0.000000,1024.000000) scale(0.100000,-0.100000)"
fill="#000000" stroke="none">
<path d="M8978 9619 c-10 -16 -24 -22 -46 -21 -18 0 -30 -4 -27 -9 9 -13 -9
-11 -24 4 -8 6 -11 7 -8 1 3 -5 -7 -15 -24 -21 -16 -6 -27 -8 -25 -4 3 4 -1 8
-9 8 -8 0 -12 -4 -10 -8 7 -11 -23 -19 -42 -12 -11 4 -14 3 -9 -6 9 -14 -16
-11 -26 4 -5 6 -8 3 -8 -7 0 -11 -6 -15 -20 -11 -11 3 -26 0 -34 -6 -7 -6 -25
-12 -40 -13 -14 -1 -26 -6 -26 -10 0 -4 -10 -8 -22 -8 -41 0 -58 -3 -58 -12 0
-4 -13 -8 -29 -8 -17 0 -33 -4 -36 -10 -3 -5 -22 -10 -41 -10 -20 0 -34 -5
-34 -12 0 -10 -3 -9 -9 1 -6 9 -10 10 -12 2 -3 -7 -19 -13 -36 -13 -18 -1 -30
-5 -27 -10 4 -7 -71 -14 -99 -9 -5 1 -6 -3 -2 -9 3 -5 -3 -10 -14 -10 -10 0
-22 -6 -24 -12 -4 -10 -6 -10 -6 0 -1 6 -6 12 -12 12 -5 0 -7 -6 -3 -12 5 -8
0 -7 -11 2 -11 9 -16 10 -11 3 5 -10 -3 -13 -31 -13 -28 0 -34 -3 -23 -10 12
-8 8 -10 -15 -11 -16 -1 -38 -1 -47 0 -10 1 -18 -2 -18 -7 0 -5 -6 -9 -12 -10
-29 -3 -63 -10 -63 -11 0 -4 -40 -12 -58 -12 -9 0 -15 -4 -12 -10 4 -5 -10 -9
-30 -9 -26 0 -34 -3 -29 -12 5 -8 0 -7 -11 2 -15 12 -17 12 -10 1 6 -11 4 -13
-7 -8 -9 3 -28 -1 -43 -9 -15 -8 -30 -12 -33 -10 -2 3 -20 -1 -39 -9 -20 -8
-46 -15 -59 -15 -12 0 -26 -4 -29 -10 -3 -5 -28 -10 -55 -10 -26 0 -50 -4 -52
-9 -1 -5 -14 -11 -28 -13 -14 -1 -31 -9 -39 -16 -11 -11 -11 -15 5 -27 18 -14
38 -19 57 -16 5 1 6 -3 2 -9 -3 -5 1 -10 10 -10 10 0 13 -5 9 -12 -5 -8 -2 -9
9 -5 10 3 17 2 17 -4 0 -6 5 -7 10 -4 6 3 10 1 10 -4 0 -6 7 -11 16 -11 9 0
12 -5 8 -12 -4 -6 -3 -8 4 -4 6 3 18 -1 26 -10 9 -8 16 -13 16 -9 0 4 12 -3
26 -14 15 -11 31 -18 37 -14 6 3 7 1 3 -5 -4 -7 -1 -12 8 -12 9 0 16 -4 16
-10 0 -5 9 -10 21 -10 12 0 18 -4 13 -11 -4 -7 -1 -10 7 -7 8 3 25 -3 38 -13
13 -10 28 -16 34 -12 6 3 7 1 3 -5 -4 -7 -1 -12 8 -12 9 0 16 -4 16 -8 0 -4
12 -13 28 -20 50 -23 72 -37 72 -44 0 -5 9 -8 20 -8 11 0 20 -4 20 -10 0 -5 7
-10 16 -10 8 0 13 -4 10 -8 -3 -5 1 -9 9 -10 8 -1 22 -3 30 -4 8 -1 12 -5 9
-10 -3 -4 4 -8 16 -8 12 0 18 -4 15 -10 -3 -5 3 -10 14 -10 12 0 21 -4 21 -10
0 -5 7 -10 16 -10 8 0 13 -4 10 -8 -3 -5 0 -9 7 -9 19 0 67 -34 66 -47 0 -7
-2 -7 -6 1 -4 10 -9 10 -26 0 -22 -12 -29 -14 -60 -16 -10 0 -16 -5 -13 -9 3
-5 -1 -9 -9 -9 -8 0 -12 5 -8 10 3 5 -5 3 -18 -4 -13 -7 -32 -12 -43 -10 -11
1 -16 -2 -12 -8 10 -15 -7 -14 -23 2 -10 10 -11 9 -6 -4 5 -13 1 -15 -21 -11
-19 3 -25 1 -20 -7 4 -6 4 -11 -1 -10 -25 4 -83 -2 -79 -9 3 -5 -14 -9 -37
-11 -23 -1 -46 -6 -51 -12 -6 -5 -25 -9 -44 -9 -24 0 -31 -3 -26 -12 5 -8 0
-7 -11 2 -11 9 -16 10 -11 3 5 -9 -1 -13 -19 -13 -15 0 -24 -4 -20 -10 8 -13
-18 -8 -27 5 -5 6 -8 5 -8 -3 0 -7 -4 -10 -10 -7 -5 3 -10 2 -10 -4 0 -6 -7
-7 -17 -4 -12 5 -14 3 -8 -8 7 -11 5 -11 -10 1 -11 9 -16 10 -11 3 6 -12 -10
-16 -40 -12 -4 0 -11 -5 -15 -13 -7 -10 -9 -10 -9 0 0 6 -5 12 -11 12 -5 0 -7
-4 -4 -10 6 -9 -14 -14 -42 -11 -6 1 -14 -3 -18 -9 -3 -5 -19 -10 -34 -10 -15
0 -33 -6 -40 -12 -11 -11 -12 -10 -6 2 7 12 6 13 -6 3 -8 -7 -31 -13 -51 -15
-20 -1 -34 -6 -32 -10 3 -4 -11 -8 -30 -8 -20 0 -36 -4 -36 -8 0 -4 -12 -9
-26 -10 -15 -1 -32 -6 -38 -11 -6 -5 -24 -10 -41 -12 -16 -2 -36 -8 -44 -14
-12 -8 -13 -7 -6 5 6 12 5 13 -6 3 -7 -7 -27 -13 -43 -13 -24 0 -27 -3 -16
-10 9 -6 10 -10 3 -10 -6 0 -15 5 -18 10 -3 6 -12 10 -18 10 -7 0 -6 -4 3 -10
13 -8 12 -10 -5 -11 -43 -3 -71 3 -82 17 -6 9 -14 15 -17 16 -19 0 -46 12 -46
19 0 5 -7 9 -16 9 -9 0 -12 5 -8 12 4 6 3 8 -4 4 -6 -3 -17 1 -25 9 -9 8 -23
15 -32 15 -10 0 -13 5 -9 12 4 6 3 8 -4 4 -6 -3 -13 -2 -17 4 -4 6 -11 8 -16
5 -5 -4 -9 -1 -9 4 0 6 -7 11 -16 11 -8 0 -12 5 -9 10 3 6 -3 10 -14 10 -12 0
-21 5 -21 10 0 6 -9 10 -20 10 -11 0 -20 5 -20 10 0 6 -7 10 -16 10 -9 0 -12
5 -8 12 4 6 3 8 -4 4 -6 -3 -17 1 -25 9 -9 8 -22 15 -30 15 -8 0 -22 9 -32 20
-10 11 -24 20 -32 20 -7 0 -13 5 -13 10 0 6 -3 9 -7 8 -15 -3 -73 28 -66 35 3
4 -4 7 -16 7 -12 0 -20 4 -17 8 3 5 -1 9 -8 9 -7 0 -33 14 -59 31 -25 18 -50
32 -56 32 -6 0 -11 4 -11 9 0 7 -19 15 -50 21 -3 1 -12 8 -20 15 -20 18 -74
23 -92 8 -7 -7 -35 -13 -60 -15 -25 -2 -44 -7 -41 -11 3 -5 -3 -8 -13 -7 -35
4 -45 0 -38 -12 5 -8 0 -7 -11 2 -11 9 -16 10 -11 3 4 -7 3 -13 -3 -13 -5 0
-12 6 -14 13 -4 10 -6 10 -6 0 -1 -7 -10 -13 -20 -13 -11 0 -21 -4 -23 -10 -1
-5 -20 -10 -40 -12 -21 -1 -38 -5 -38 -8 0 -3 -17 -7 -37 -8 -21 -2 -40 -6
-43 -10 -3 -4 -12 -7 -20 -7 -8 1 -24 -6 -34 -14 -11 -9 -16 -10 -12 -3 4 6 2
12 -3 12 -6 0 -11 -4 -11 -10 0 -5 -13 -10 -28 -10 -15 0 -32 -4 -37 -9 -6 -5
-23 -11 -40 -12 -16 -2 -36 -8 -44 -14 -12 -8 -13 -7 -6 5 6 12 5 13 -6 3 -7
-7 -24 -13 -39 -13 -20 0 -22 -2 -10 -10 8 -5 10 -10 5 -10 -6 0 -17 6 -24 13
-11 10 -13 10 -7 0 5 -10 -4 -13 -33 -13 -22 0 -43 -4 -46 -10 -3 -5 -25 -10
-48 -11 -36 -1 -38 -2 -17 -9 20 -6 16 -8 -23 -9 -36 -1 -46 -4 -41 -13 5 -8
0 -7 -11 2 -11 9 -16 10 -11 3 5 -9 0 -13 -16 -13 -13 0 -30 -6 -37 -12 -11
-11 -12 -10 -6 1 6 10 4 12 -6 5 -8 -5 -25 -10 -39 -11 -24 -3 -52 -14 -92
-34 -24 -12 -37 -11 -18 1 8 5 10 10 4 10 -6 0 -14 -3 -18 -7 -8 -8 -13 -9
-42 -12 -8 0 -13 -5 -10 -9 3 -5 -1 -9 -9 -9 -8 0 -11 5 -8 11 4 6 0 5 -9 -1
-8 -7 -18 -10 -21 -6 -4 3 -7 1 -7 -5 0 -6 -9 -9 -20 -7 -11 2 -20 0 -20 -6 0
-5 -16 -9 -36 -9 -19 0 -33 -4 -30 -9 3 -5 0 -9 -7 -8 -51 2 -78 -4 -71 -15 5
-8 0 -7 -11 2 -11 9 -16 10 -11 3 5 -9 0 -13 -18 -13 -14 0 -28 -5 -31 -10 -4
-6 -14 -10 -23 -9 -36 3 -62 -1 -62 -12 0 -5 5 -7 10 -4 6 3 10 0 10 -8 0 -12
21 -24 52 -31 3 0 17 -10 30 -21 25 -23 31 -25 54 -25 8 0 12 -4 9 -10 -3 -5
1 -10 10 -10 9 0 25 -9 37 -20 12 -11 28 -20 35 -20 7 0 13 -4 13 -10 0 -5 9
-10 20 -10 11 0 20 -4 20 -10 0 -5 7 -10 16 -10 8 0 13 -4 10 -8 -3 -5 1 -9 9
-10 8 -1 22 -3 30 -4 8 -1 13 -4 10 -7 -3 -2 13 -13 35 -23 23 -11 44 -26 47
-33 3 -8 9 -13 13 -10 5 3 21 -6 37 -19 16 -13 38 -26 48 -28 11 -1 27 -11 36
-20 9 -10 24 -18 33 -18 10 0 14 -4 11 -10 -3 -5 3 -10 15 -10 12 0 19 -4 16
-8 -3 -5 1 -9 9 -10 8 -1 22 -3 30 -4 8 -1 12 -5 9 -10 -3 -4 0 -8 6 -8 6 0
18 -7 27 -15 8 -8 19 -13 24 -10 5 4 9 2 9 -4 0 -5 10 -11 23 -13 12 -2 22 -9
22 -17 0 -13 -12 -18 -62 -23 -12 -1 -19 -6 -17 -10 3 -4 -12 -8 -33 -8 -28 0
-34 -3 -23 -10 13 -9 13 -10 0 -10 -9 0 -22 6 -29 13 -11 10 -13 10 -7 0 5 -9
-2 -13 -24 -13 -18 0 -29 -4 -25 -10 4 -6 -8 -10 -30 -10 -26 0 -34 -3 -29
-12 5 -8 0 -7 -11 2 -10 8 -16 10 -12 4 4 -7 -7 -11 -30 -12 -20 -1 -41 -6
-47 -12 -5 -5 -21 -10 -34 -10 -13 0 -21 -4 -18 -8 3 -5 -1 -9 -9 -9 -8 0 -12
4 -9 9 3 4 -5 4 -18 -1 -13 -5 -43 -15 -68 -22 -25 -7 -49 -16 -55 -21 -5 -4
-21 -8 -35 -8 -14 0 -32 -6 -39 -12 -11 -10 -13 -10 -7 0 4 6 2 12 -3 12 -6 0
-11 -4 -11 -10 0 -5 -3 -9 -7 -9 -29 5 -53 -2 -47 -13 5 -8 0 -7 -11 2 -15 12
-17 12 -10 1 6 -11 4 -13 -7 -8 -9 3 -28 -1 -43 -9 -15 -8 -45 -14 -67 -14
-27 0 -37 -4 -32 -12 5 -8 0 -9 -14 -6 -12 4 -22 2 -22 -2 0 -4 -10 -6 -22 -2
-15 4 -19 2 -13 -8 5 -8 3 -11 -6 -8 -8 3 -30 -1 -49 -9 -19 -8 -52 -14 -72
-15 -21 0 -38 -5 -38 -10 0 -6 -9 -8 -20 -5 -14 4 -20 0 -20 -11 0 -10 -3 -13
-8 -7 -9 13 -35 18 -28 6 4 -5 -2 -10 -11 -10 -39 -1 -53 -5 -53 -13 0 -4 -13
-8 -30 -8 -16 0 -30 4 -30 10 0 5 -3 9 -7 9 -5 -1 -15 -1 -23 0 -13 1 -13 2 0
12 12 9 11 10 -7 6 -13 -3 -24 1 -27 9 -3 8 -15 14 -26 14 -12 0 -18 5 -15 10
3 6 -3 10 -15 10 -12 0 -18 5 -15 10 3 6 -3 10 -15 10 -12 0 -19 4 -16 8 3 5
-1 9 -9 10 -8 1 -22 3 -30 4 -8 1 -12 5 -10 9 6 8 -26 24 -56 28 -5 0 -7 6 -4
11 3 6 -1 10 -9 10 -9 0 -16 4 -16 10 0 5 -3 9 -7 9 -21 -3 -44 2 -39 9 3 5
-11 14 -30 21 -19 7 -32 16 -30 20 3 4 -1 8 -9 9 -8 1 -22 3 -30 4 -8 1 -12 5
-9 10 3 4 -2 8 -10 8 -9 0 -16 3 -16 8 0 7 -55 34 -66 32 -3 -1 -11 5 -17 13
-7 8 -28 23 -47 33 -19 11 -37 21 -40 24 -3 3 -14 12 -24 20 -18 13 -19 13
-11 0 4 -8 -4 -4 -19 10 -15 14 -31 25 -34 25 -4 0 -6 3 -5 7 2 5 0 7 -5 7
-22 -4 -42 2 -37 11 3 6 -3 10 -14 10 -11 0 -23 5 -26 10 -3 6 -13 10 -21 10
-10 0 -12 -5 -8 -12 5 -8 0 -7 -11 2 -11 9 -16 10 -11 3 6 -12 -4 -16 -30 -12
-4 0 -11 -5 -15 -13 -7 -10 -9 -10 -9 0 0 6 -5 12 -11 12 -5 0 -7 -4 -4 -10 3
-5 -3 -11 -14 -11 -30 -2 -34 -3 -50 -13 -10 -6 -12 -5 -7 2 4 6 -5 5 -20 -3
-15 -8 -31 -12 -36 -9 -4 3 -8 0 -8 -6 0 -6 -8 -10 -17 -9 -10 1 -31 1 -48 0
-23 -1 -27 -3 -15 -11 11 -7 -1 -10 -40 -10 -39 0 -51 -3 -40 -10 11 -7 8 -10
-16 -10 -16 0 -36 -6 -43 -12 -11 -10 -13 -10 -7 0 5 7 1 12 -9 12 -9 0 -13
-4 -10 -10 4 -6 -7 -10 -25 -10 -22 0 -29 -4 -24 -12 5 -8 0 -7 -11 2 -10 8
-16 10 -12 4 6 -11 -10 -15 -72 -16 -18 0 -21 -2 -10 -9 10 -6 1 -9 -27 -9
-22 0 -45 -5 -51 -11 -6 -6 -28 -11 -48 -11 -26 0 -34 -3 -24 -9 10 -6 5 -9
-17 -9 -16 0 -36 -6 -43 -12 -11 -10 -13 -10 -7 0 4 6 2 12 -3 12 -6 0 -11 -4
-11 -10 0 -5 -14 -10 -31 -10 -16 0 -28 -3 -26 -7 3 -5 -11 -9 -30 -10 -19 -1
-42 -8 -51 -15 -13 -11 -14 -11 -7 2 7 12 6 13 -6 3 -9 -7 -29 -13 -46 -15
-18 -1 -29 -6 -27 -10 3 -4 -6 -9 -20 -9 -35 -2 -39 -3 -55 -13 -10 -6 -12 -6
-6 3 9 15 -35 -8 -47 -24 -5 -6 -8 -5 -8 3 0 6 -8 12 -17 12 -15 0 -16 -2 -3
-10 11 -7 7 -10 -20 -11 -19 -1 -38 -1 -42 0 -5 0 -8 -4 -8 -10 0 -5 -4 -8 -8
-5 -5 3 -21 -1 -36 -9 -14 -8 -24 -10 -21 -5 4 6 1 10 -4 10 -6 0 -11 -4 -11
-8 0 -4 -12 -9 -27 -10 -16 -1 -30 -7 -31 -12 -2 -6 -22 -10 -43 -10 -30 0
-38 -3 -33 -12 5 -8 0 -7 -11 2 -15 12 -17 12 -10 1 6 -11 2 -13 -19 -9 -19 4
-26 1 -26 -11 0 -14 -2 -14 -10 -1 -9 13 -12 13 -24 -2 -7 -10 -16 -15 -19
-11 -4 3 -7 1 -7 -5 0 -7 7 -12 16 -12 9 0 12 -5 8 -12 -4 -7 -4 -10 1 -6 4 4
17 1 29 -7 11 -8 29 -15 39 -15 10 0 15 -4 12 -10 -3 -5 1 -10 10 -10 9 0 14
-4 11 -8 -2 -4 5 -9 17 -9 12 -1 27 -9 33 -17 6 -9 14 -13 17 -9 4 3 7 1 7 -5
0 -7 6 -11 13 -10 6 2 11 -2 10 -9 -2 -7 3 -10 11 -7 8 3 17 0 21 -5 3 -6 11
-8 17 -5 7 4 8 2 4 -4 -4 -7 -1 -12 9 -12 9 0 13 -4 10 -10 -5 -9 15 -15 38
-11 4 0 7 -3 7 -9 0 -5 7 -10 16 -10 9 0 12 -5 8 -12 -4 -6 -3 -8 4 -4 6 3 17
-1 25 -9 9 -8 25 -15 37 -15 12 0 18 -4 15 -10 -3 -5 1 -10 10 -10 9 0 14 -4
10 -9 -3 -6 4 -8 15 -6 11 2 20 -1 20 -6 0 -6 5 -7 10 -4 6 3 10 1 10 -4 0 -6
8 -11 18 -11 14 0 15 -2 2 -10 -13 -8 -12 -10 5 -11 11 -1 23 -1 28 0 4 0 7
-3 7 -9 0 -5 7 -10 16 -10 8 0 13 -4 10 -8 -2 -4 5 -9 16 -9 11 -1 25 -9 31
-18 7 -8 23 -17 37 -20 14 -3 26 -9 28 -15 2 -5 9 -10 16 -10 7 0 21 -9 31
-20 10 -11 23 -20 29 -20 6 0 22 -9 36 -20 14 -11 34 -20 44 -20 11 0 16 -3
13 -6 -7 -8 55 -44 64 -38 4 2 10 -3 13 -12 4 -9 13 -14 21 -10 8 3 14 0 12
-7 -1 -7 8 -11 23 -10 14 1 19 0 12 -3 -8 -4 -1 -12 20 -24 18 -10 37 -15 42
-12 5 3 6 0 2 -6 -4 -7 -1 -12 8 -12 9 0 16 -4 16 -10 0 -5 9 -10 21 -10 11 0
17 -4 14 -10 -5 -8 7 -12 31 -9 3 0 13 -9 23 -19 16 -19 40 -25 89 -23 16 1
21 5 16 14 -5 7 0 6 11 -3 10 -8 16 -10 13 -4 -4 6 9 10 35 11 23 1 43 6 45
12 2 6 14 11 26 11 13 0 26 3 30 7 4 4 19 9 34 11 15 2 31 7 37 13 5 5 26 9
48 9 28 0 36 3 31 13 -5 7 0 6 11 -3 13 -10 16 -11 11 -2 -6 10 -3 13 10 11
11 -2 30 3 43 10 16 9 21 9 16 1 -9 -14 36 9 47 25 5 6 8 5 8 -4 0 -11 3 -11
17 0 15 12 16 12 8 -1 -7 -12 -5 -12 11 1 10 9 25 14 31 12 7 -3 13 0 13 6 0
6 5 11 11 11 5 0 8 -4 5 -9 -6 -9 50 8 73 23 10 7 12 5 6 -5 -6 -11 -5 -12 6
-1 7 6 23 12 36 12 13 0 23 5 23 10 0 6 5 10 11 10 5 0 7 -6 3 -12 -6 -10 -4
-10 7 0 7 6 24 12 37 12 13 0 21 4 18 8 -2 4 5 8 17 9 54 2 85 8 81 15 -3 4
12 8 33 8 30 0 35 3 23 11 -12 9 -11 10 7 6 13 -3 25 -1 28 3 3 4 14 6 25 3
12 -3 20 0 20 7 0 9 4 9 17 -1 11 -10 14 -10 9 -1 -5 8 0 12 14 12 14 0 19 4
14 13 -5 7 0 6 11 -3 11 -9 16 -10 11 -2 -4 6 -3 12 3 12 5 0 12 -6 14 -12 4
-10 6 -10 6 0 1 6 9 12 19 12 10 0 24 6 31 13 8 7 11 7 8 1 -7 -12 44 2 70 19
7 4 29 8 50 9 21 1 41 5 44 10 3 4 18 9 35 10 16 1 35 6 41 11 7 5 29 9 49 9
25 0 33 3 23 9 -10 6 -3 9 21 9 20 0 41 5 47 11 6 6 27 11 47 11 20 0 36 3 36
7 0 4 14 8 32 9 17 2 37 7 43 12 7 5 28 11 47 12 20 2 34 6 31 11 -2 4 13 7
34 7 22 0 43 4 49 10 5 5 22 11 37 12 15 1 27 5 27 8 0 3 17 7 37 8 21 2 40 8
44 13 3 6 9 10 13 10 26 -4 56 0 52 7 -2 4 3 8 12 9 59 2 90 8 86 15 -3 4 4 8
15 8 11 0 23 5 26 10 3 6 12 10 18 10 7 0 6 -4 -3 -10 -28 -18 -1 -10 35 10
20 11 34 16 30 10 -3 -5 1 -10 9 -10 8 0 18 5 21 10 4 6 11 8 16 5 5 -4 9 -2
9 3 0 6 9 8 20 5 11 -3 20 -1 20 4 0 5 17 10 37 11 21 2 40 6 43 10 5 6 18 11
45 16 6 1 16 6 24 10 10 7 12 5 6 -5 -6 -11 -5 -12 6 -1 7 6 23 12 35 12 12 0
24 4 26 10 2 5 20 10 41 12 20 1 37 5 37 9 0 5 9 6 20 4 11 -2 20 1 20 7 0 6
3 8 7 5 3 -4 13 -1 21 6 13 10 14 9 8 -1 -7 -12 -4 -12 14 -2 12 6 28 9 35 6
8 -3 21 1 28 9 11 11 17 11 27 2 10 -9 11 -9 6 1 -7 12 0 15 36 15 10 0 15 4
11 10 -4 6 0 8 10 4 9 -3 19 -2 22 4 4 5 11 7 16 3 5 -3 17 0 26 8 14 11 16
11 8 -2 -6 -12 -5 -13 6 -2 7 6 26 12 42 12 20 0 26 4 21 13 -5 7 0 6 11 -3
11 -9 16 -10 11 -2 -5 9 3 12 31 13 30 0 34 2 18 9 -16 7 -11 9 22 9 23 1 45
6 49 12 3 6 22 9 40 7 22 -3 33 0 30 7 -2 6 13 11 37 12 23 1 43 7 45 12 2 6
8 11 13 11 6 0 7 -4 4 -10 -3 -6 1 -7 9 -4 9 3 16 9 16 13 0 4 13 7 30 6 16
-1 27 2 24 7 -3 4 8 8 23 8 16 0 35 6 42 13 8 6 11 7 8 1 -4 -8 3 -8 28 0 18
6 31 15 27 21 -3 5 3 3 13 -5 11 -9 16 -10 11 -2 -5 9 4 12 36 12 28 0 38 3
29 9 -8 5 4 9 35 9 26 1 51 6 54 13 4 6 10 10 14 10 30 -4 46 1 40 12 -6 10
-4 10 7 0 7 -7 18 -13 23 -13 6 0 4 5 -4 10 -11 7 -7 10 18 10 18 0 31 4 28 8
-3 5 1 9 9 9 8 0 11 -5 8 -11 -3 -6 0 -5 8 2 7 6 25 12 40 12 36 0 91 24 82
35 -5 5 0 3 10 -4 13 -10 17 -11 17 -1 0 7 8 10 20 7 11 -3 23 -1 26 4 3 6 15
7 26 3 14 -4 18 -2 14 5 -5 7 4 11 24 11 22 0 29 4 24 13 -6 9 -4 9 8 -1 11
-9 18 -10 23 -2 3 5 19 10 34 10 15 0 32 5 37 10 6 6 27 12 47 13 19 1 33 5
30 10 -2 4 12 7 31 7 20 0 36 5 36 11 0 5 4 8 8 5 5 -3 20 1 35 9 15 8 29 10
32 5 4 -6 14 -6 25 0 11 6 29 15 41 21 12 6 19 6 15 1 -3 -5 1 -9 9 -9 8 0 12
4 9 9 -3 4 6 8 20 8 14 0 28 5 31 10 3 6 17 10 31 10 17 0 23 4 18 12 -5 7 -3
8 7 2 18 -11 40 -14 34 -5 -2 5 10 9 28 10 54 3 56 4 51 13 -3 4 11 8 30 8 19
0 38 5 41 10 3 6 17 10 31 10 18 0 23 4 18 13 -5 7 0 6 11 -3 10 -8 16 -10 12
-3 -6 9 2 12 28 11 20 -1 41 4 47 10 7 7 25 12 41 12 20 0 26 4 21 13 -5 7 0
6 11 -3 11 -9 16 -10 11 -2 -5 8 1 12 21 13 15 1 31 1 36 0 4 0 7 3 7 9 0 5 5
10 11 10 5 0 7 -6 3 -12 -4 -7 1 -6 12 3 10 8 31 15 46 14 15 0 24 3 22 7 -3
4 5 8 18 8 13 0 30 6 36 12 10 10 15 10 21 -1 6 -10 10 -10 13 -1 2 6 15 13
30 13 14 1 24 5 21 10 -2 4 9 7 24 7 16 0 35 6 42 13 11 10 12 9 6 -1 -6 -12
-4 -12 16 -1 13 7 33 14 44 14 21 1 48 10 76 25 10 5 21 4 29 -3 10 -9 11 -9
5 2 -6 11 -4 13 8 8 9 -3 19 -2 23 4 3 5 15 7 26 3 16 -5 19 -3 12 7 -6 11 -4
11 10 0 15 -12 17 -12 14 0 -2 9 4 13 15 11 10 -2 25 2 32 8 7 6 19 10 27 9
26 -3 49 1 44 9 -2 4 6 9 20 10 13 1 35 3 48 4 14 1 23 5 20 9 -2 4 4 8 13 8
38 1 78 12 117 32 13 7 16 7 11 0 -3 -6 -1 -11 4 -11 6 0 11 5 11 11 0 6 6 9
14 6 8 -3 22 1 33 8 10 8 23 14 28 15 6 0 3 -5 -5 -10 -9 -6 -10 -10 -3 -10 6
0 15 5 18 10 3 6 17 10 31 10 18 0 23 4 18 13 -5 7 0 6 11 -3 15 -12 17 -12
10 -1 -6 11 -3 13 13 9 12 -4 22 -2 22 3 0 4 7 5 17 2 12 -5 14 -3 8 8 -7 12
-6 12 7 1 11 -9 18 -10 23 -2 3 5 15 10 26 10 10 0 19 5 19 10 0 6 15 10 33
10 18 0 39 6 46 13 8 6 11 7 8 1 -3 -6 0 -11 8 -11 8 0 12 4 9 9 -5 8 9 12 40
8 11 -1 15 3 12 9 -6 9 37 16 74 13 3 0 7 14 8 31 2 24 0 28 -8 17 -6 -9 -10
-10 -10 -3 0 6 5 15 10 18 7 4 6 14 -2 28 -7 12 -11 29 -10 39 2 9 -2 19 -8
23 -5 3 -10 20 -10 36 0 22 -4 28 -12 23 -8 -5 -7 0 2 11 9 11 10 16 3 11 -13
-7 -14 -4 -16 52 -1 9 -5 19 -9 22 -3 3 -8 17 -10 32 -2 15 -7 30 -11 34 -4 4
-7 22 -7 39 0 17 -3 35 -7 39 -10 9 -32 95 -33 124 0 13 -4 20 -10 17 -5 -3
-10 -1 -10 4 0 6 6 11 13 11 7 0 8 3 2 8 -14 10 -39 55 -26 47 6 -3 11 1 11 9
0 8 -4 18 -10 21 -5 3 -10 17 -10 31 0 13 -4 24 -10 24 -5 0 -10 13 -10 28 0
15 -6 34 -12 41 -11 11 -10 12 1 6 10 -6 12 -4 5 6 -4 8 -10 23 -11 33 -2 11
-9 26 -16 35 -10 12 -9 13 2 6 11 -6 12 -5 5 6 -5 8 -10 25 -12 39 -2 13 -9
28 -15 32 -7 4 -8 8 -3 8 5 0 2 7 -5 17 -8 9 -13 19 -11 22 2 3 -1 7 -6 9 -5
1 -16 -7 -24 -19z m-2371 -1705 c-3 -3 -12 -4 -19 -1 -8 3 -5 6 6 6 11 1 17
-2 13 -5z"/>
<path d="M4528 7733 c7 -3 16 -2 19 1 4 3 -2 6 -13 5 -11 0 -14 -3 -6 -6z"/>
<path d="M1170 6851 c0 -6 -8 -10 -17 -10 -45 -2 -61 -6 -57 -13 3 -4 -7 -8
-21 -8 -14 0 -24 -4 -21 -8 2 -4 -7 -9 -22 -10 -15 -1 -28 -7 -30 -12 -2 -6
-12 -10 -23 -10 -10 0 -19 -4 -19 -10 0 -5 -7 -10 -15 -10 -14 0 -39 -17 -77
-52 -10 -10 -18 -15 -18 -12 0 7 -16 -9 -53 -54 -15 -19 -27 -30 -27 -25 0 4
-8 -6 -16 -24 -9 -18 -19 -31 -23 -30 -3 1 -7 -2 -8 -7 -1 -5 -7 -13 -15 -17
-10 -7 -10 -9 2 -9 10 0 7 -5 -8 -16 -12 -8 -22 -24 -22 -34 0 -10 -10 -26
-22 -34 -12 -9 -18 -16 -12 -16 6 0 11 -7 11 -15 0 -8 -4 -12 -9 -9 -7 5 -13
-18 -9 -40 1 -4 -3 -14 -9 -21 -6 -8 -12 -27 -12 -44 -1 -17 -4 -28 -8 -26 -4
2 -7 -2 -7 -10 0 -8 5 -11 11 -8 8 5 8 3 0 -8 -13 -18 -16 -159 -4 -159 6 0
10 -5 10 -11 0 -5 -4 -8 -8 -5 -10 6 -8 -21 3 -46 4 -10 8 -29 9 -42 0 -13 5
-22 9 -19 5 3 7 -8 5 -23 -1 -16 2 -28 8 -27 5 1 11 -8 11 -19 1 -11 11 -30
23 -43 11 -12 17 -24 14 -28 -4 -4 -1 -13 6 -22 7 -8 9 -15 4 -15 -5 0 2 -7
14 -16 12 -8 22 -22 22 -30 0 -8 5 -12 10 -9 10 6 15 -9 10 -30 -1 -5 1 -7 5
-4 8 8 61 -43 57 -54 -1 -5 2 -6 8 -2 5 3 13 -1 16 -9 3 -9 11 -16 18 -16 6 0
18 -9 26 -20 8 -11 22 -20 32 -20 10 0 18 -4 18 -10 0 -5 7 -10 16 -10 8 0 12
-5 9 -10 -4 -6 -3 -10 2 -9 21 4 44 -2 39 -9 -5 -8 8 -12 47 -13 9 0 15 -4 13
-8 -3 -4 8 -8 25 -9 17 0 36 -5 43 -11 9 -7 16 -7 26 2 10 9 11 9 6 0 -8 -14
4 -16 67 -15 20 0 35 -2 33 -6 -2 -4 15 -7 39 -8 24 0 42 3 39 8 -3 4 13 9 35
9 50 2 53 2 70 13 8 5 16 4 22 -5 6 -10 9 -11 9 -1 0 6 10 12 23 12 13 0 27 3
31 7 3 4 14 8 24 9 9 2 18 8 20 13 2 6 10 11 19 11 8 0 21 7 30 15 8 8 19 13
24 10 5 -4 9 -1 9 4 0 6 7 11 15 11 8 0 19 9 25 20 6 11 18 20 26 20 8 0 12 5
9 10 -3 6 1 10 9 10 9 0 16 5 16 11 0 5 5 7 12 3 8 -5 9 -2 5 10 -4 11 -2 16
6 14 7 -2 14 2 17 7 2 6 12 19 22 29 10 11 18 24 18 28 0 5 5 6 10 3 6 -3 10
1 10 10 0 10 5 13 12 9 6 -4 8 -3 4 4 -3 6 1 17 9 25 8 9 15 24 15 35 0 10 9
27 20 37 11 10 20 31 20 47 0 16 4 27 8 24 4 -2 9 10 10 27 2 17 6 34 10 37 7
4 13 55 16 123 0 9 4 17 8 17 4 0 8 5 8 11 0 5 -4 8 -8 5 -5 -3 -9 1 -9 9 0 8
3 12 7 10 4 -2 7 2 7 10 0 8 -4 12 -9 9 -5 -3 -7 15 -5 40 2 25 0 46 -4 46 -4
0 -5 9 -2 20 3 11 0 26 -6 34 -6 7 -12 25 -13 39 -1 14 -6 23 -10 21 -4 -3 -8
6 -8 20 0 13 -6 27 -12 29 -10 4 -10 6 0 6 10 1 10 4 0 15 -7 8 -16 12 -20 9
-5 -2 -8 4 -8 15 0 10 -3 22 -7 26 -5 4 -8 13 -8 19 -1 7 -7 11 -14 9 -7 -1
-10 2 -7 7 4 5 -5 21 -19 35 -14 14 -23 26 -20 26 3 0 -8 13 -24 29 -16 16
-27 32 -23 37 4 4 2 4 -4 1 -6 -3 -28 9 -49 28 -21 19 -42 35 -47 35 -5 0 -18
9 -30 20 -12 11 -30 20 -40 20 -13 0 -17 4 -12 13 4 6 3 9 -1 4 -5 -4 -19 0
-33 9 -13 8 -30 13 -38 10 -8 -3 -14 -2 -14 3 0 4 -6 8 -12 9 -30 3 -92 20
-79 21 8 0 11 4 8 7 -4 4 -13 1 -22 -6 -11 -9 -15 -9 -15 -1 0 7 -5 9 -12 5
-17 -11 -48 -13 -42 -3 5 9 -83 5 -111 -5 -16 -6 -17 -6 -5 3 9 7 10 11 3 11
-6 0 -15 -4 -18 -10 -3 -5 -11 -10 -16 -10 -6 0 -7 5 -4 10 3 6 1 10 -4 10 -6
0 -11 -4 -11 -9z"/>
<path d="M2691 5820 c-11 -6 -11 -9 0 -13 10 -4 8 -6 -4 -6 -21 -1 -67 -44
-67 -63 0 -9 -3 -9 -10 2 -9 13 -10 13 -10 0 0 -17 -64 -80 -81 -80 -6 0 -7
-4 -4 -10 3 -5 1 -10 -4 -10 -6 0 -11 -8 -11 -17 0 -15 -2 -16 -10 -3 -7 11
-10 12 -10 2 0 -8 -18 -31 -40 -52 -21 -20 -36 -40 -33 -44 4 -3 0 -6 -8 -6
-8 0 -21 -9 -29 -20 -8 -11 -21 -20 -30 -20 -13 0 -13 -1 0 -10 12 -7 12 -10
1 -10 -7 0 -44 -31 -82 -70 -37 -38 -74 -70 -81 -70 -9 0 -9 -3 2 -10 11 -7
12 -10 2 -10 -17 0 -42 -25 -42 -42 0 -10 -3 -9 -10 2 -8 13 -10 12 -10 -2 0
-10 -5 -18 -11 -18 -5 0 -7 -4 -4 -10 3 -5 0 -10 -7 -10 -8 0 -20 -9 -28 -20
-8 -11 -20 -20 -28 -20 -7 0 -10 -4 -7 -10 3 -5 1 -10 -4 -10 -6 0 -11 -8 -11
-17 0 -15 -2 -16 -10 -3 -7 11 -10 12 -10 2 0 -8 -18 -31 -40 -52 -21 -20 -36
-40 -33 -44 4 -3 -1 -6 -10 -6 -9 0 -17 -8 -17 -17 0 -15 -2 -16 -10 -3 -9 13
-10 13 -10 0 0 -9 -9 -22 -20 -30 -11 -8 -20 -21 -20 -29 0 -8 -3 -12 -6 -8
-3 3 -32 -21 -64 -53 -33 -32 -62 -55 -66 -51 -4 3 -4 1 -1 -5 4 -6 -5 -20
-18 -30 -14 -10 -25 -28 -24 -39 0 -11 3 -14 6 -7 4 10 8 10 21 0 12 -10 14
-10 8 0 -5 8 2 12 24 12 17 0 29 -4 26 -8 -2 -4 6 -8 19 -8 13 0 21 4 19 8 -6
10 20 11 30 1 10 -11 37 -12 30 -2 -3 5 2 9 11 9 9 0 14 -4 11 -8 -2 -4 6 -8
19 -8 13 0 21 4 19 8 -3 4 2 8 11 8 9 0 14 -4 11 -8 -3 -5 1 -9 9 -9 8 0 12 4
9 9 -6 10 20 11 30 1 10 -11 37 -12 30 -2 -3 5 2 9 11 9 9 0 14 -4 11 -8 -2
-4 6 -8 19 -8 13 0 21 4 19 8 -6 10 20 11 30 1 10 -10 66 -11 60 -1 -3 4 2 8
11 8 9 0 14 -4 11 -9 -7 -10 20 -9 30 2 10 10 26 9 20 -1 -3 -5 1 -9 9 -9 8 0
12 4 9 9 -3 4 2 8 11 8 9 0 14 -4 11 -8 -2 -4 6 -8 19 -8 13 0 21 4 19 8 -6
10 20 11 30 1 10 -10 66 -11 60 -1 -3 4 2 8 11 8 9 0 14 -4 11 -9 -7 -10 20
-9 30 2 10 10 26 9 20 -1 -3 -5 1 -9 9 -9 8 0 12 4 9 9 -3 4 2 8 11 8 9 0 14
-4 11 -8 -2 -4 6 -8 19 -8 13 0 21 4 19 8 -3 4 2 8 11 8 9 0 14 -4 11 -8 -3
-5 1 -9 9 -9 8 0 12 4 9 9 -6 10 20 11 30 1 10 -11 37 -12 30 -2 -3 5 2 9 11
9 9 0 14 -4 11 -8 -2 -4 6 -8 19 -8 13 0 21 4 19 8 -6 10 20 11 30 1 10 -10
66 -11 60 -1 -3 4 2 8 11 8 9 0 14 -4 11 -9 -7 -10 20 -9 30 2 10 10 26 9 20
-1 -3 -5 1 -9 9 -9 8 0 12 4 9 9 -3 4 2 8 11 8 9 0 14 -4 11 -8 -2 -4 6 -8 19
-8 13 0 21 4 19 8 -6 10 20 11 30 1 10 -10 66 -11 60 -1 -3 4 2 8 11 8 9 0 14
-4 11 -9 -7 -10 20 -9 30 2 10 10 26 9 20 -1 -3 -5 1 -9 9 -9 8 0 12 4 9 9 -3
4 2 8 11 8 9 0 14 -4 11 -8 -2 -4 6 -8 19 -8 13 0 21 4 19 8 -3 4 2 8 11 8 9
0 14 -4 11 -8 -3 -5 1 -9 9 -9 8 0 12 4 9 9 -6 10 20 11 30 1 10 -11 37 -12
30 -2 -3 5 2 9 11 9 9 0 14 -4 11 -8 -2 -4 6 -8 19 -8 13 0 21 4 19 8 -3 4 1
8 10 8 8 0 17 -6 19 -12 3 -8 6 -6 6 4 1 10 6 17 13 15 6 -1 17 9 24 21 8 17
13 20 17 10 4 -9 6 -7 6 5 1 9 9 17 19 17 14 0 15 2 2 10 -8 5 -10 10 -3 10
17 0 103 87 95 96 -4 4 1 4 11 1 10 -4 17 -2 17 6 0 7 9 19 20 27 11 8 20 21
20 30 0 13 1 13 10 0 6 -9 10 -10 10 -3 0 7 11 24 25 38 14 14 31 25 38 25 7
0 6 4 -3 10 -10 7 -11 10 -2 10 16 0 103 86 95 94 -4 3 -1 6 5 6 14 0 122 108
122 122 0 6 3 9 6 5 4 -3 28 16 54 43 26 27 51 46 55 42 5 -4 5 -2 2 4 -7 12
26 44 46 44 9 0 8 3 -2 9 -9 6 -10 11 -2 15 6 4 11 5 11 1 0 -3 20 15 45 39
25 25 45 51 45 58 0 9 3 8 10 -2 8 -13 10 -12 10 3 0 9 8 17 18 17 14 0 15 2
2 10 -9 6 -10 10 -3 10 7 0 30 18 52 40 22 22 45 40 51 40 6 0 9 4 6 8 -6 10
39 52 55 52 5 0 7 5 4 10 -3 6 -1 10 4 10 6 0 11 8 11 18 0 15 2 15 11 2 9
-13 10 -13 6 0 -3 12 -27 15 -133 16 -84 1 -134 -2 -143 -10 -11 -8 -13 -8 -8
1 10 16 -212 15 -232 -1 -11 -8 -13 -8 -7 2 5 9 -2 12 -26 12 -19 0 -40 -6
-47 -12 -10 -9 -12 -9 -7 -1 9 16 -213 15 -233 -1 -11 -8 -13 -8 -8 1 10 16
-212 15 -232 -1 -11 -8 -13 -8 -8 1 10 16 -212 15 -232 -1 -11 -8 -13 -8 -8 1
10 16 -212 15 -232 -1 -12 -8 -13 -8 -7 2 6 9 -9 12 -63 10 -45 -1 -68 -6 -65
-12 3 -6 -1 -3 -8 6 -9 10 -19 13 -27 8z m1699 -20 c0 -5 -2 -10 -4 -10 -3 0
-8 5 -11 10 -3 6 -1 10 4 10 6 0 11 -4 11 -10z"/>
<path d="M5800 5800 c-6 -11 -18 -20 -28 -20 -15 0 -15 -2 -2 -10 13 -8 12
-10 -3 -10 -10 0 -20 -7 -23 -15 -4 -8 -10 -12 -15 -9 -5 3 -8 0 -7 -8 2 -7
-3 -12 -9 -10 -7 1 -12 -4 -10 -10 1 -7 -4 -12 -10 -10 -7 1 -12 -4 -10 -10 1
-7 -4 -12 -10 -10 -7 1 -12 -4 -10 -10 1 -7 -5 -11 -13 -10 -8 2 -12 1 -8 -3
8 -8 -24 -43 -35 -38 -4 3 -6 -1 -5 -9 2 -7 -3 -12 -9 -11 -7 2 -12 -3 -10
-10 1 -6 -4 -11 -10 -10 -7 2 -12 -3 -10 -10 1 -6 -4 -11 -10 -10 -7 2 -12 -3
-10 -10 1 -6 -5 -10 -13 -9 -8 2 -12 1 -8 -3 8 -8 -24 -43 -35 -38 -4 3 -6 -1
-5 -9 2 -7 -3 -12 -10 -10 -8 1 -12 -1 -9 -5 5 -11 -30 -43 -38 -35 -4 4 -5 0
-3 -8 2 -8 -3 -14 -10 -12 -6 1 -11 -4 -10 -10 2 -7 -3 -12 -10 -10 -6 1 -11
-4 -10 -10 2 -7 -3 -12 -10 -10 -8 1 -12 -1 -9 -5 6 -11 -30 -43 -39 -35 -4 4
-4 2 0 -5 4 -7 -8 -22 -31 -37 -21 -15 -31 -26 -23 -26 13 0 13 -2 0 -9 -8 -6
-18 -7 -22 -5 -5 3 -7 0 -6 -8 2 -7 -3 -12 -9 -11 -7 2 -12 -3 -10 -10 1 -6
-4 -11 -10 -10 -7 2 -12 -3 -10 -10 1 -6 -4 -11 -11 -9 -8 1 -11 -2 -7 -8 3
-5 -2 -10 -12 -10 -15 0 -16 -2 -3 -10 13 -8 13 -10 -2 -10 -10 0 -22 -9 -28
-20 -6 -11 -18 -20 -28 -20 -15 0 -15 -2 -2 -10 13 -9 13 -10 0 -11 -8 -1 -18
-1 -22 0 -5 0 -7 -5 -5 -12 1 -6 -4 -11 -10 -10 -7 2 -12 -3 -10 -10 1 -6 -4
-11 -10 -10 -7 2 -12 -3 -10 -10 1 -6 -4 -11 -11 -9 -8 1 -11 -2 -7 -8 3 -5
-2 -10 -12 -10 -15 0 -16 -2 -3 -10 13 -8 12 -10 -3 -10 -10 0 -20 -7 -23 -15
-4 -8 -10 -12 -15 -9 -5 3 -8 0 -7 -8 2 -7 -3 -12 -9 -11 -7 2 -12 -3 -10 -10
1 -6 -5 -11 -13 -9 -8 2 -12 1 -8 -3 7 -8 -83 -101 -94 -97 -5 1 -7 -4 -5 -11
1 -6 -4 -11 -10 -10 -7 2 -12 -3 -10 -10 1 -6 -3 -11 -8 -10 -6 1 -11 -6 -11
-16 0 -18 37 -24 52 -8 10 9 26 9 21 0 -3 -5 5 -8 18 -8 13 0 21 3 18 8 -5 9
11 9 21 0 3 -4 17 -8 29 -10 17 -2 19 -1 7 7 -12 8 -11 10 8 10 13 0 21 -4 18
-9 -7 -10 20 -9 30 2 10 10 26 9 20 -1 -3 -5 1 -9 9 -9 8 0 12 4 9 9 -3 4 2 8
11 8 9 0 14 -4 11 -8 -2 -4 6 -8 19 -8 13 0 22 3 20 7 -3 3 6 7 20 7 14 0 23
-3 21 -7 -3 -4 8 -7 24 -6 15 0 26 3 23 7 -2 5 3 8 12 8 9 0 14 -4 11 -9 -7
-10 20 -9 30 2 10 10 26 9 20 -1 -3 -5 1 -9 9 -9 8 0 12 4 9 9 -3 4 2 8 11 8
9 0 14 -4 11 -8 -2 -4 6 -8 19 -8 13 0 21 4 19 8 -6 10 20 11 30 1 10 -10 86
-11 80 -1 -3 4 9 8 26 8 17 0 29 -4 26 -8 -2 -4 6 -8 19 -8 13 0 21 4 19 8 -6
10 20 11 30 1 10 -11 37 -12 30 -2 -3 5 2 9 11 9 9 0 14 -4 11 -8 -2 -4 6 -8
19 -8 13 0 21 4 19 8 -6 10 20 11 30 1 10 -10 106 -11 100 -1 -3 4 5 8 18 8
17 0 19 -3 9 -9 -8 -6 -1 -8 22 -7 19 0 33 4 30 9 -2 4 6 7 19 7 17 0 19 -3 9
-9 -8 -6 -1 -8 22 -7 19 0 33 4 30 9 -2 4 6 7 19 7 17 0 19 -3 9 -9 -8 -6 -1
-8 22 -7 19 0 33 4 30 9 -2 4 6 7 19 7 17 0 19 -3 9 -9 -9 -6 -4 -8 17 -8 17
1 28 5 26 9 -6 10 20 11 30 1 10 -11 37 -12 30 -2 -3 5 2 9 11 9 9 0 14 -4 11
-8 -2 -4 6 -8 19 -8 13 0 21 4 19 8 -6 10 20 11 30 1 10 -10 66 -11 60 -1 -3
4 2 8 11 8 9 0 14 -4 11 -9 -7 -10 20 -9 30 2 10 10 26 9 20 -1 -3 -5 1 -9 9
-9 8 0 12 4 9 9 -3 4 2 8 11 8 9 0 14 -4 11 -8 -2 -4 6 -8 19 -8 13 0 21 4 19
8 -3 4 2 8 11 8 9 0 14 -4 10 -10 -3 -5 6 -3 20 4 30 16 101 87 98 98 -3 8 13
12 30 9 5 -1 6 2 3 7 -6 10 4 24 29 39 11 6 19 16 18 22 -2 6 3 10 10 8 6 -1
11 4 10 10 -2 7 0 12 5 10 4 -1 8 2 9 7 1 5 12 14 25 21 13 6 22 17 21 23 -2
7 3 11 10 9 6 -1 11 4 10 10 -2 7 3 12 10 10 6 -1 11 4 10 10 -2 7 0 12 5 10
4 -1 8 2 9 7 1 5 12 14 25 21 13 6 22 17 21 23 -2 7 3 11 10 9 6 -1 11 4 10
10 -2 7 2 12 9 10 6 -1 17 8 23 20 7 13 15 20 18 16 4 -3 7 -1 7 6 0 7 5 9 10
6 6 -4 10 -3 9 2 -3 17 1 33 9 31 11 -4 92 75 92 89 0 7 6 12 13 10 6 -1 11 4
10 10 -2 7 3 12 10 10 6 -1 11 4 10 10 -2 7 3 12 10 10 6 -1 11 4 10 10 -2 7
2 12 9 10 6 -1 17 8 23 21 7 13 16 24 21 25 5 1 8 5 7 9 -2 5 3 7 10 5 6 -1
11 4 10 10 -2 7 2 12 9 10 6 -1 17 8 23 20 7 13 15 20 18 16 4 -3 7 -1 7 6 0
7 5 9 10 6 6 -4 10 -3 9 2 -3 18 1 33 9 30 10 -3 118 105 115 115 -3 8 12 12
30 9 5 -1 6 3 2 9 -3 5 -1 10 6 10 7 0 9 3 6 7 -4 3 3 11 16 18 12 6 21 17 19
24 -1 7 2 10 7 7 5 -4 16 3 24 14 7 11 18 17 23 12 5 -4 0 3 -10 16 -15 17
-22 19 -28 10 -6 -10 -8 -10 -8 0 0 6 -12 12 -26 12 -17 0 -23 -4 -18 -12 6
-10 5 -10 -7 -2 -19 16 -162 16 -152 1 5 -9 3 -9 -8 -1 -19 16 -162 16 -152 1
4 -7 0 -6 -10 1 -18 15 -74 14 -96 -2 -11 -8 -13 -8 -8 1 10 16 -212 15 -232
-1 -11 -8 -13 -8 -8 1 10 16 -212 15 -232 -1 -11 -8 -13 -8 -8 1 10 16 -212
15 -232 -1 -11 -8 -13 -8 -8 1 10 16 -212 15 -232 -1 -11 -8 -13 -8 -8 1 10
16 -212 15 -232 -1 -11 -8 -13 -8 -7 2 4 6 5 12 2 12 -3 0 -10 -9 -16 -20z"/>
<path d="M7525 5810 c4 -6 11 -8 16 -5 14 9 11 15 -7 15 -8 0 -12 -5 -9 -10z"/>
<path d="M8942 5808 c10 -6 10 -8 -2 -8 -17 0 -80 -64 -80 -81 0 -6 -4 -7 -10
-4 -5 3 -10 1 -10 -4 0 -6 -8 -11 -17 -11 -15 0 -16 -2 -3 -10 11 -7 12 -10 2
-10 -8 0 -31 -18 -52 -40 -20 -21 -40 -36 -44 -33 -3 4 -6 1 -6 -6 0 -6 -15
-27 -34 -46 -19 -18 -37 -31 -40 -28 -3 4 -6 -1 -6 -10 0 -9 -4 -17 -10 -17
-5 0 -10 -7 -10 -15 0 -9 -6 -12 -17 -8 -9 4 -14 2 -11 -3 6 -11 -98 -115
-106 -107 -3 4 -6 -1 -6 -10 0 -9 -8 -17 -17 -17 -15 0 -16 -2 -3 -10 13 -8
12 -10 -2 -10 -10 0 -18 -5 -18 -11 0 -5 -4 -7 -10 -4 -5 3 -10 0 -10 -7 0 -8
-9 -20 -20 -28 -11 -8 -20 -20 -20 -27 0 -8 -7 -10 -17 -6 -10 3 -15 3 -12 -1
9 -10 -293 -314 -305 -308 -5 3 -7 -2 -3 -11 4 -10 1 -17 -6 -17 -7 0 -19 -9
-27 -20 -8 -11 -21 -20 -30 -20 -13 0 -13 -1 0 -10 13 -8 12 -10 -2 -10 -10 0
-18 -4 -18 -10 0 -5 -7 -10 -16 -10 -8 0 -13 -4 -10 -9 4 -5 0 -12 -6 -15 -11
-5 -11 -7 0 -12 6 -3 10 -9 8 -13 -3 -4 1 -8 9 -8 8 0 12 4 9 9 -3 4 5 8 18 8
17 0 19 -3 9 -9 -9 -6 -4 -8 17 -8 17 1 28 5 26 9 -6 10 20 11 30 1 10 -11 37
-12 30 -2 -3 5 2 9 11 9 9 0 14 -4 11 -8 -2 -4 6 -8 19 -8 13 0 21 4 19 8 -6
10 20 11 30 1 10 -10 66 -11 60 -1 -3 4 2 8 11 8 9 0 14 -4 11 -9 -7 -10 20
-9 30 2 10 10 26 9 20 -1 -3 -5 1 -9 9 -9 8 0 12 4 9 9 -3 4 2 8 11 8 9 0 14
-4 11 -8 -2 -4 6 -8 19 -8 13 0 21 4 19 8 -6 10 20 11 30 1 10 -10 66 -11 60
-1 -3 4 2 8 11 8 9 0 14 -4 11 -9 -7 -10 20 -9 30 2 10 10 26 9 20 -1 -3 -5 1
-9 9 -9 8 0 12 4 9 9 -3 4 2 8 11 8 9 0 14 -4 11 -8 -2 -4 6 -8 19 -8 13 0 21
4 19 8 -3 4 2 8 11 8 9 0 14 -4 11 -8 -2 -4 4 -8 14 -8 10 0 16 4 14 8 -3 4 5
8 18 8 17 0 19 -3 9 -9 -8 -6 -1 -8 22 -7 19 0 33 4 30 9 -2 4 6 7 19 7 17 0
19 -3 9 -9 -8 -6 -1 -8 22 -7 19 0 33 4 30 9 -2 4 6 7 19 7 17 0 19 -3 9 -9
-8 -6 -1 -8 22 -7 19 0 33 4 30 9 -2 4 6 7 19 7 19 0 20 -2 8 -11 -13 -9 -12
-10 3 -5 9 3 24 9 34 13 9 4 14 2 10 -3 -3 -6 7 -10 23 -9 15 0 26 3 23 7 -2
5 3 8 12 8 9 0 14 -4 11 -9 -7 -10 20 -9 30 2 10 10 26 9 20 -1 -3 -5 1 -9 9
-9 8 0 12 4 9 9 -3 4 2 8 11 8 9 0 14 -4 11 -8 -2 -4 6 -8 19 -8 13 0 21 4 19
8 -6 10 20 11 30 1 10 -10 86 -11 80 -1 -3 4 9 8 26 8 17 0 29 -4 26 -8 -2 -4
6 -8 19 -8 13 0 21 4 19 8 -6 10 20 11 30 1 10 -11 37 -12 30 -2 -3 5 2 9 11
9 9 0 14 -4 11 -8 -2 -4 6 -8 19 -8 13 0 21 4 19 8 -6 10 20 11 30 1 10 -10
66 -11 60 -1 -3 4 5 8 18 8 19 0 20 -2 8 -11 -13 -9 -13 -10 0 -6 13 3 15 72
18 530 l2 525 -60 1 c-44 0 -59 -3 -53 -12 5 -9 3 -9 -8 -1 -19 16 -162 16
-152 1 5 -9 3 -9 -8 -1 -19 16 -162 16 -152 1 5 -9 3 -9 -8 0 -9 7 -59 11
-142 10 -70 0 -122 -4 -115 -9z"/>
<path d="M1295 4431 c-3 -6 -144 -10 -348 -9 l-342 1 -2 -1462 c-2 -943 1
-1460 7 -1456 6 3 9 -2 8 -12 -3 -41 3 -94 10 -89 4 2 9 -11 10 -31 2 -20 6
-41 10 -47 7 -12 9 -18 11 -42 0 -8 6 -12 11 -9 6 4 9 3 8 -2 -6 -17 25 -92
35 -86 6 4 8 0 4 -10 -3 -10 -2 -17 4 -17 6 0 8 -4 5 -9 -3 -5 1 -14 9 -21 8
-7 12 -16 9 -21 -3 -5 -1 -9 4 -9 5 0 15 -11 22 -25 7 -13 18 -22 23 -18 6 3
7 2 4 -4 -9 -14 42 -85 55 -77 6 4 8 3 5 -3 -8 -12 27 -56 37 -46 3 3 6 -1 6
-10 0 -9 7 -17 16 -17 8 0 13 -3 11 -8 -6 -9 19 -33 27 -25 3 4 6 1 6 -6 0 -7
5 -9 10 -6 6 4 9 1 8 -5 -2 -7 6 -17 17 -23 11 -7 27 -20 37 -30 9 -10 25 -19
36 -20 12 0 18 -5 16 -9 -3 -4 0 -8 6 -8 6 0 8 -5 5 -10 -4 -6 -3 -10 2 -9 22
4 54 -2 49 -9 -6 -10 82 -52 108 -52 9 0 15 -4 12 -9 -4 -5 2 -8 11 -7 10 2
33 -5 52 -15 19 -10 38 -16 43 -13 5 3 16 0 25 -8 14 -11 16 -11 8 2 -6 12 -5
13 6 3 7 -7 28 -13 45 -13 18 0 36 -5 39 -10 5 -8 11 -8 20 0 10 8 14 7 17 -2
4 -10 9 -10 23 2 11 9 16 10 11 3 -6 -10 713 -13 3577 -13 1971 0 3587 3 3591
7 8 8 13 9 71 12 31 1 37 4 25 12 -12 8 -9 9 12 5 15 -3 29 -2 32 3 3 5 15 7
26 4 11 -3 20 0 20 6 0 6 9 11 20 11 11 0 20 5 20 11 0 8 6 7 17 -2 11 -10 14
-10 9 -1 -5 8 0 12 14 12 14 0 19 4 14 12 -5 8 -2 9 9 5 10 -3 17 -2 17 3 0 5
7 6 17 3 10 -4 14 -2 10 4 -4 6 11 16 33 23 22 7 40 17 40 22 0 4 7 8 15 8 9
0 20 10 25 23 5 12 9 16 9 9 1 -8 12 -2 27 13 14 14 30 23 35 19 5 -3 8 0 7 8
-2 7 3 12 10 10 6 -1 12 5 12 15 0 9 3 13 7 10 3 -4 15 5 25 20 10 16 18 24
18 20 0 -5 7 -2 15 7 8 8 15 23 15 33 0 13 3 14 8 5 6 -9 12 -6 22 12 7 14 18
23 23 19 6 -3 7 -1 4 4 -4 6 0 16 8 23 8 7 15 19 15 27 0 8 5 11 10 8 6 -3 10
3 10 15 0 12 5 18 10 15 5 -3 10 2 10 12 1 22 24 55 33 46 4 -3 7 1 7 10 0 9
9 32 20 52 11 20 20 46 20 60 0 13 5 27 10 30 6 3 10 15 10 26 0 11 4 18 8 15
4 -2 9 6 10 20 3 45 5 54 12 54 4 0 7 6 7 13 1 6 2 31 4 54 1 23 6 40 10 37 5
-3 9 652 9 1456 0 1168 -2 1460 -12 1461 -7 1 -28 1 -45 0 -21 -1 -33 3 -33
11 0 8 -3 9 -8 3 -11 -15 -64 -17 -56 -2 5 9 3 9 -7 0 -7 -7 -20 -13 -28 -13
-14 0 -14 1 -1 10 9 6 10 10 3 10 -6 0 -15 -4 -18 -10 -9 -14 -45 -12 -45 3 0
7 -3 8 -8 2 -11 -15 -64 -17 -56 -2 5 9 3 9 -7 0 -7 -7 -20 -13 -28 -13 -14 0
-14 1 -1 10 9 6 10 10 3 10 -6 0 -15 -4 -18 -10 -9 -14 -45 -12 -45 3 0 7 -3
8 -8 2 -11 -15 -64 -17 -56 -2 5 9 3 9 -7 0 -7 -7 -20 -13 -28 -13 -14 0 -14
1 -1 10 9 6 10 10 3 10 -6 0 -15 -4 -18 -10 -9 -14 -45 -12 -45 3 0 7 -3 8 -8
2 -11 -15 -64 -17 -55 -2 5 9 3 9 -8 0 -20 -16 -1322 -16 -1312 1 3 6 0 6 -8
-1 -17 -17 -49 -17 -49 0 0 7 -3 8 -8 2 -11 -15 -64 -17 -56 -2 5 9 3 9 -7 0
-7 -7 -20 -13 -29 -13 -13 0 -13 1 0 10 9 6 10 10 3 10 -6 0 -15 -4 -18 -10
-9 -14 -45 -12 -45 3 0 7 -3 8 -8 2 -11 -15 -64 -17 -56 -2 5 9 3 9 -7 0 -7
-7 -20 -13 -29 -13 -13 0 -13 1 0 10 9 6 10 10 3 10 -6 0 -15 -4 -18 -10 -9
-14 -45 -12 -45 3 0 7 -3 8 -8 2 -11 -15 -64 -17 -56 -2 5 9 3 9 -7 0 -7 -7
-20 -13 -29 -13 -13 0 -13 1 0 10 9 6 10 10 3 10 -6 0 -15 -4 -18 -10 -9 -14
-45 -12 -45 3 0 7 -3 8 -8 2 -11 -15 -64 -17 -55 -2 5 9 4 9 -8 0 -19 -15
-1302 -16 -1292 0 4 6 1 7 -8 1 -24 -15 -62 -16 -70 -2 -5 7 -9 8 -9 3 0 -6
-13 -11 -30 -11 -19 -1 -28 2 -23 10 3 6 0 6 -8 -1 -7 -7 -20 -13 -29 -13 -13
0 -13 1 0 10 9 6 10 10 3 10 -6 0 -15 -4 -18 -10 -9 -14 -45 -12 -45 3 0 7 -3
8 -8 2 -11 -15 -64 -17 -56 -2 5 9 3 9 -7 0 -7 -7 -20 -13 -29 -13 -13 0 -13
1 0 10 9 6 10 10 3 10 -6 0 -15 -4 -18 -10 -9 -14 -45 -12 -45 3 0 7 -3 8 -8
2 -11 -15 -64 -17 -56 -2 5 9 3 9 -7 0 -7 -7 -20 -13 -29 -13 -13 0 -13 1 0
10 9 6 10 10 3 10 -6 0 -15 -4 -18 -10 -9 -14 -45 -12 -45 3 0 7 -3 8 -8 2
-11 -15 -64 -17 -55 -2 5 9 4 9 -8 0 -20 -16 -1302 -16 -1292 1 5 8 3 8 -8 -1
-20 -16 -1282 -16 -1272 1 5 8 3 8 -8 -1 -17 -14 -1282 -16 -1273 -2 3 5 3 9
0 9 -3 0 -7 -4 -11 -9z"/>
</g>
</svg>
